<?xml version="1.0" encoding="UTF-8"?>
<!DOCTYPE svg PUBLIC "-//W3C//DTD SVG 1.1//EN" "http://www.w3.org/Graphics/SVG/1.1/DTD/svg11.dtd">
<!-- Creator: CorelDRAW 2018 (64-Bit) -->
<svg xmlns="http://www.w3.org/2000/svg" xml:space="preserve" width="17.9388mm" height="28.6467mm" version="1.1" style="shape-rendering:geometricPrecision; text-rendering:geometricPrecision; image-rendering:optimizeQuality; fill-rule:evenodd; clip-rule:evenodd"
viewBox="0 0 51.35 82"
 xmlns:xlink="http://www.w3.org/1999/xlink">
 <defs>
  <style type="text/css">
   <![CDATA[
    .fil0 {fill:url(#id0)}
   ]]>
  </style>
  <linearGradient id="id0" gradientUnits="userSpaceOnUse" x1="-0" y1="41" x2="260.65" y2="41">
   <stop offset="0" style="stop-opacity:1; stop-color:#FBBB2F"/>
   <stop offset="1" style="stop-opacity:1; stop-color:#E62565"/>
  </linearGradient>
 </defs>
 <g id="Слой_x0020_1">
  <metadata id="CorelCorpID_0Corel-Layer"/>
  <path class="fil0" d="M49.28 82l2.07 0 0 -4.04 -2.07 0 0 4.04zm2.07 -18.65l0 4.04 -16.36 0 0 -65.37 4.04 0 0 61.33 12.32 0zm0 14.61l-47.31 0 0 -10.57 16.94 0 0 -49.1 -14.61 0 0 -9.15 -2.02 0 0.38 1.98c4.34,-0.83 8.05,-1.84 11.16,-3.05l-0 0c3.05,-1.19 6.01,-2.62 8.89,-4.32l-1.02 -1.74 0 2.02 13.26 0 0 -4.04 -14.28 0.28c-2.69,1.58 -5.46,2.93 -8.3,4.03l-0 0 0 0c-2.79,1.09 -6.29,2.05 -10.45,2.85l-1.64 0.31 0 14.86 14.61 0 0 41.02 -16.94 0 0 18.65 51.35 0"/>
 </g>
</svg>
