<?xml version="1.0" encoding="UTF-8"?>
<!DOCTYPE svg PUBLIC "-//W3C//DTD SVG 1.1//EN" "http://www.w3.org/Graphics/SVG/1.1/DTD/svg11.dtd">
<!-- Creator: CorelDRAW 2018 (64-Bit) -->
<svg xmlns="http://www.w3.org/2000/svg" xml:space="preserve" width="20.4576mm" height="29.1615mm" version="1.1" style="shape-rendering:geometricPrecision; text-rendering:geometricPrecision; image-rendering:optimizeQuality; fill-rule:evenodd; clip-rule:evenodd"
viewBox="0 0 50.27 71.65"
 xmlns:xlink="http://www.w3.org/1999/xlink">
 <defs>
  <style type="text/css">
   <![CDATA[
    .fil0 {fill:url(#id0)}
   ]]>
  </style>
  <linearGradient id="id0" gradientUnits="userSpaceOnUse" x1="-0" y1="35.83" x2="228.64" y2="35.83">
   <stop offset="0" style="stop-opacity:1; stop-color:#E62663"/>
   <stop offset="1" style="stop-opacity:1; stop-color:#00A4CC"/>
  </linearGradient>
 </defs>
 <g id="Слой_x0020_1">
  <metadata id="CorelCorpID_0Corel-Layer"/>
  <path class="fil0" d="M47.2 71.65l0.3 0 -46.08 0 0 -11.34c4.13,-3.86 8.23,-7.75 12.27,-11.71 3.51,-3.45 6.53,-6.67 9.05,-9.68l0 0c2.51,-2.99 4.45,-5.75 5.81,-8.25l-0 0c1.33,-2.45 1.95,-4.67 1.95,-6.7 0,-2.19 -0.42,-4.71 -2.03,-6.32 -1.54,-1.56 -3.58,-2.06 -5.72,-2.06 -2.14,0.01 -3.91,0.57 -5.52,1.73 -1.8,1.3 -3.5,2.82 -5.12,4.57l-1.22 1.32 -10.91 -10.77 1.16 -1.23c3.41,-3.62 6.93,-6.4 10.58,-8.31 3.74,-1.95 8.14,-2.88 13.13,-2.88 3.48,0 6.7,0.54 9.62,1.64l0 0c5.76,2.17 10.21,6.24 12.54,11.98 1.15,2.83 1.71,5.98 1.71,9.4 0,3.06 -0.65,6.15 -1.92,9.25 -1.25,3.04 -2.91,6.07 -4.97,9.07l0 -0c-2.05,2.98 -4.37,5.95 -6.98,8.91 -2.6,2.95 -5.27,5.84 -8.02,8.66l-1.24 -1.21 -0.21 -1.72c1.9,-0.24 3.8,-0.42 5.71,-0.59 2.11,-0.18 4,-0.27 5.68,-0.27l13.49 0 0 3.47 -13.49 0c-1.55,0 -3.35,0.09 -5.39,0.26l-0 0c-2.05,0.17 -3.91,0.36 -5.57,0.57l-4.91 0.61 3.46 -3.55c2.72,-2.79 5.35,-5.63 7.9,-8.52 2.52,-2.87 4.76,-5.73 6.72,-8.58l0 -0c1.94,-2.82 3.48,-5.63 4.62,-8.42 1.12,-2.73 1.66,-5.37 1.66,-7.93 0,-5.37 -1.6,-10.42 -5.57,-14.18l0 0c-4.04,-3.82 -9.35,-5.37 -14.83,-5.37 -4.57,0 -8.38,0.85 -11.53,2.49l0 0c-3.64,1.89 -6.85,4.63 -9.65,7.61l-1.26 -1.19 1.22 -1.23 8.43 8.33 -1.22 1.23 -1.27 -1.18c1.71,-1.85 3.59,-3.55 5.63,-5.02 2.18,-1.59 4.77,-2.39 7.55,-2.38 3.14,0 5.94,0.85 8.19,3.1 2.3,2.34 3.02,5.56 3.02,8.75 0,2.74 -0.83,5.54 -2.37,8.37l0 -0.01 -0 0.01c-1.51,2.77 -3.58,5.7 -6.2,8.82 -2.61,3.11 -5.7,6.42 -9.28,9.92 -3.88,3.8 -7.81,7.54 -11.78,11.25l-1.18 -1.27 1.73 0 0 7.12 43.65 0 -1.34 0 0 3.47 0.3 0 -0.3 0zm-13.94 -66.77l0 0m-1.88 53.96l0 0m-2.91 -41.19l0 0"/>
 </g>
</svg>
