<?xml version="1.0" encoding="UTF-8"?>
<!DOCTYPE svg PUBLIC "-//W3C//DTD SVG 1.1//EN" "http://www.w3.org/Graphics/SVG/1.1/DTD/svg11.dtd">
<!-- Creator: CorelDRAW 2018 (64-Bit) -->
<svg xmlns="http://www.w3.org/2000/svg" xml:space="preserve" width="2.9633mm" height="2.9632mm" version="1.1" style="shape-rendering:geometricPrecision; text-rendering:geometricPrecision; image-rendering:optimizeQuality; fill-rule:evenodd; clip-rule:evenodd"
viewBox="0 0 7.44 7.44"
 xmlns:xlink="http://www.w3.org/1999/xlink">
 <defs>
  <style type="text/css">
   <![CDATA[
    .fil0 {fill:#9EB0C5;fill-rule:nonzero}
   ]]>
  </style>
 </defs>
 <g id="Слой_x0020_1">
  <metadata id="CorelCorpID_0Corel-Layer"/>
  <path class="fil0" d="M6.72 1.52c-0.46,-0.63 -1.1,-1.09 -1.83,-1.33 -0.38,-0.12 -0.77,-0.19 -1.17,-0.19 -0.53,0 -1.04,0.11 -1.52,0.32 -0.98,0.44 -1.72,1.28 -2.04,2.3 -0.11,0.35 -0.16,0.72 -0.16,1.1 0,0.59 0.13,1.16 0.4,1.68 0.25,0.5 0.63,0.94 1.07,1.28 0.65,0.49 1.43,0.75 2.25,0.75 0.59,0 1.16,-0.14 1.69,-0.4 0.6,-0.31 1.11,-0.77 1.47,-1.35 0.37,-0.59 0.57,-1.27 0.57,-1.97l0 -0c-0,-0.8 -0.25,-1.56 -0.72,-2.2zm0.32 1.77c-1.03,-0.81 -2.28,-1.29 -3.59,-1.38 0.02,-0.16 -0,-0.31 -0.07,-0.44 0.43,-0.39 0.92,-0.69 1.45,-0.92 1.2,0.42 2.04,1.48 2.2,2.73zm-4.23 -0.93c-0.06,0.06 -0.12,0.11 -0.19,0.15 -0.17,0.1 -0.34,0.15 -0.46,0.11 -0.03,-0.01 -0.06,-0.03 -0.08,-0.05 -0.06,-0.06 -0.08,-0.19 -0.03,-0.33 0.04,-0.14 0.13,-0.28 0.25,-0.4 0.07,-0.07 0.14,-0.13 0.22,-0.17 0.19,-0.11 0.39,-0.14 0.5,-0.06 0.01,0 0.01,0.01 0.02,0.01 0.07,0.07 0.08,0.22 0.01,0.39 -0,0 -0,0 -0,0.01 -0.05,0.12 -0.13,0.23 -0.23,0.34zm1.45 -1.94c-0.42,0.22 -0.81,0.49 -1.17,0.82 -0.15,-0.06 -0.34,-0.06 -0.53,0.01 -0.03,-0.21 -0.06,-0.42 -0.09,-0.63 0.39,-0.16 0.81,-0.24 1.24,-0.24 0.18,0 0.36,0.01 0.54,0.04zm-2.15 0.36c0.03,0.22 0.06,0.43 0.09,0.64 -0.06,0.05 -0.13,0.1 -0.18,0.16 -0.14,0.14 -0.24,0.29 -0.31,0.45 -0.36,0.07 -0.71,0.17 -1.05,0.3 0.3,-0.66 0.81,-1.2 1.44,-1.55zm-1.38 4.45c-0.24,-0.47 -0.36,-0.98 -0.36,-1.51 0,-0.31 0.04,-0.61 0.12,-0.91 0.37,-0.16 0.75,-0.29 1.14,-0.38 0.01,0.16 0.06,0.31 0.17,0.41 0.01,0.01 0.02,0.02 0.04,0.03 -0.38,0.77 -0.58,1.62 -0.58,2.48 0,0.23 0.01,0.46 0.04,0.68 -0.23,-0.24 -0.43,-0.51 -0.58,-0.81zm1.02 1.2c-0.07,-0.35 -0.11,-0.71 -0.11,-1.07 0,-0.82 0.19,-1.62 0.56,-2.35 0.02,0 0.03,0 0.05,0 0.11,0 0.23,-0.02 0.36,-0.07 0.5,1.45 1.32,2.78 2.39,3.88 -0.4,0.17 -0.83,0.25 -1.28,0.25 -0.71,0 -1.39,-0.22 -1.96,-0.64zm4.8 -0.94c-0.3,0.48 -0.71,0.87 -1.2,1.15 -1.1,-1.09 -1.93,-2.44 -2.42,-3.89 0.05,-0.04 0.09,-0.08 0.14,-0.12 0.1,-0.1 0.19,-0.22 0.25,-0.34 1.38,0.07 2.7,0.61 3.74,1.52 -0.01,0.6 -0.19,1.18 -0.51,1.69z"/>
 </g>
</svg>
