<?xml version="1.0" encoding="UTF-8"?>
<!DOCTYPE svg PUBLIC "-//W3C//DTD SVG 1.1//EN" "http://www.w3.org/Graphics/SVG/1.1/DTD/svg11.dtd">
<!-- Creator: CorelDRAW 2018 (64-Bit) -->
<svg xmlns="http://www.w3.org/2000/svg" xml:space="preserve" width="5.4975mm" height="2.9633mm" version="1.1" style="shape-rendering:geometricPrecision; text-rendering:geometricPrecision; image-rendering:optimizeQuality; fill-rule:evenodd; clip-rule:evenodd"
viewBox="0 0 22.65 12.21"
 xmlns:xlink="http://www.w3.org/1999/xlink">
 <defs>
  <style type="text/css">
   <![CDATA[
    .fil0 {fill:#9EB0C5;fill-rule:nonzero}
   ]]>
  </style>
 </defs>
 <g id="Слой_x0020_1">
  <metadata id="CorelCorpID_0Corel-Layer"/>
  <g id="_1693073696">
   <path class="fil0" d="M17.28 1.67l-11.3 0c-1.87,0 -3.39,1.52 -3.39,3.39 0,0.21 0.17,0.38 0.38,0.38l14.31 0c0.65,0 1.18,-0.53 1.18,-1.18l0 -1.4c0,-0.65 -0.53,-1.18 -1.18,-1.18zm-7.53 0.76l2.22 0 0 2.25 -2.22 0 0 -2.25zm-0.76 2.25l-2.22 0 0 -2.25 2.22 0 0 2.25zm3.74 -2.25l2.22 0 0 2.25 -2.22 0 0 -2.25zm-6.75 0l0.03 0 0 2.25 -2.63 0c0.18,-1.27 1.28,-2.25 2.6,-2.25zm11.72 1.82c0,0.23 -0.19,0.42 -0.42,0.42l-1.57 0 0 -2.25 1.57 0c0.23,0 0.42,0.19 0.42,0.42l0 1.4z"/>
   <path class="fil0" d="M5.2 8.84c-0.62,0 -1.12,0.5 -1.12,1.12 0,0.62 0.5,1.12 1.12,1.12 0.62,0 1.12,-0.5 1.12,-1.12 0,-0.62 -0.5,-1.12 -1.12,-1.12zm0 1.48c-0.2,0 -0.36,-0.16 -0.36,-0.36 0,-0.2 0.16,-0.36 0.36,-0.36 0.2,0 0.36,0.16 0.36,0.36 0,0.2 -0.16,0.36 -0.36,0.36z"/>
   <path class="fil0" d="M17 8.84c-0.62,0 -1.12,0.5 -1.12,1.12 0,0.62 0.5,1.12 1.12,1.12 0.62,0 1.12,-0.5 1.12,-1.12 0,-0.62 -0.5,-1.12 -1.12,-1.12zm0 1.48c-0.2,0 -0.36,-0.16 -0.36,-0.36 0,-0.2 0.16,-0.36 0.36,-0.36 0.2,0 0.36,0.16 0.36,0.36 0,0.2 -0.16,0.36 -0.36,0.36z"/>
   <path class="fil0" d="M22.65 8.79c0,-0.21 -0.17,-0.38 -0.38,-0.38l0 -4.74c0,-2.02 -1.65,-3.67 -3.67,-3.67l-11.9 0c-3.45,0 -6.26,2.81 -6.26,6.26l0 2.15 -0.07 0c-0.21,0 -0.38,0.17 -0.38,0.38 0,0.21 0.17,0.38 0.38,0.38l0.07 0 0 0.79c0,0.21 0.17,0.38 0.38,0.38l2.15 0c0.18,1.06 1.11,1.88 2.22,1.88 1.11,0 2.04,-0.81 2.22,-1.88l7.36 0c0.18,1.06 1.11,1.88 2.22,1.88 1.11,0 2.04,-0.81 2.22,-1.88l2.67 0c0.21,0 0.38,-0.17 0.38,-0.38l0 -0.79c0.21,-0 0.38,-0.17 0.38,-0.38zm-1.14 -3.27l-0.62 0c-0.54,0 -0.98,-0.44 -0.98,-0.98l0 -1.61c0,-0.28 0.22,-0.5 0.5,-0.5l0.82 0c0.18,0.38 0.28,0.8 0.28,1.24l0 1.85zm-16.32 5.93c-0.82,0 -1.5,-0.67 -1.5,-1.5 0,-0.82 0.67,-1.49 1.5,-1.49 0.82,0 1.49,0.67 1.49,1.49 0,0.82 -0.67,1.5 -1.49,1.5zm11.8 0c-0.82,0 -1.49,-0.67 -1.49,-1.5 0,-0.82 0.67,-1.49 1.49,-1.49 0.82,0 1.49,0.67 1.49,1.49 0,0.82 -0.67,1.5 -1.49,1.5zm2.22 -1.88c-0.18,-1.06 -1.11,-1.88 -2.22,-1.88 -1.11,0 -2.04,0.81 -2.22,1.88l-7.36 0c-0.18,-1.06 -1.11,-1.88 -2.22,-1.88 -1.11,0 -2.04,0.81 -2.22,1.88l-1.77 0 0 -0.41 0.94 0c0.21,0 0.38,-0.17 0.38,-0.38 0,-0.21 -0.17,-0.38 -0.38,-0.38l-0.94 0 0 -2.15c0,-3.03 2.47,-5.5 5.5,-5.5l11.9 0c0.83,0 1.58,0.35 2.11,0.91l-0.3 0c-0.69,0 -1.26,0.56 -1.26,1.26l0 1.61c0,0.96 0.78,1.74 1.74,1.74l0.62 0 0 0.96 -0.36 0c-0.21,0 -0.38,0.17 -0.38,0.38 0,0.21 0.17,0.38 0.38,0.38l0.36 0 0 0.41 -1.02 0c-0.21,0 -0.38,0.17 -0.38,0.38 0,0.21 0.17,0.38 0.38,0.38l1.02 0 0 0.41 -2.29 0z"/>
  </g>
 </g>
</svg>
