<?xml version="1.0" encoding="UTF-8"?>
<!DOCTYPE svg PUBLIC "-//W3C//DTD SVG 1.1//EN" "http://www.w3.org/Graphics/SVG/1.1/DTD/svg11.dtd">
<!-- Creator: CorelDRAW 2018 (64-Bit) -->
<svg xmlns="http://www.w3.org/2000/svg" xml:space="preserve" width="12.2767mm" height="15.2401mm" version="1.1" style="shape-rendering:geometricPrecision; text-rendering:geometricPrecision; image-rendering:optimizeQuality; fill-rule:evenodd; clip-rule:evenodd"
viewBox="0 0 95.86 118.99"
 xmlns:xlink="http://www.w3.org/1999/xlink">
 <defs>
  <style type="text/css">
   <![CDATA[
    .fil0 {fill:#FEFEFE}
    .fil1 {fill:#074F93;fill-rule:nonzero}
   ]]>
  </style>
 </defs>
 <g id="Слой_x0020_1">
  <metadata id="CorelCorpID_0Corel-Layer"/>
  <rect class="fil0" x="-0" y="-0" width="95.86" height="118.99" rx="9.09" ry="9.09"/>
  <g id="_951844336">
   <path class="fil1" d="M60.32 42.52c2.03,0 3.67,1.64 3.67,3.67 0,2.03 -1.64,3.67 -3.67,3.67 -2.03,0 -3.67,-1.64 -3.67,-3.67 0,-2.03 1.64,-3.67 3.67,-3.67z"/>
   <path class="fil1" d="M30.95 88.86l-10.1 0c-1.27,0 -2.29,-1.03 -2.29,-2.29l0 -10.1c0,-0.61 0.24,-1.19 0.67,-1.62l19.78 -19.78c-0.55,-1.01 -1.06,-2.05 -1.54,-3.11 -1.52,-3.43 -0.76,-7.52 1.92,-10.18l9.01 -8.97c2.56,-2.55 6.41,-3.37 9.79,-2.07 3.08,1.18 7.53,3.36 11.27,7.08 3.75,3.73 5.99,8.23 7.22,11.35 1.33,3.4 0.52,7.25 -2.06,9.83l-9.12 9.08c-2.65,2.63 -6.59,3.41 -10.05,1.97 -1.66,-0.69 -3.26,-1.51 -4.77,-2.43 -1.08,-0.66 -1.42,-2.08 -0.76,-3.16 0.66,-1.08 2.08,-1.42 3.16,-0.76 1.31,0.8 2.7,1.51 4.13,2.11 1.74,0.72 3.72,0.34 5.05,-0.98l9.12 -9.08c1.29,-1.28 1.69,-3.21 1.03,-4.9 -1.06,-2.71 -3,-6.61 -6.18,-9.77 -3.16,-3.15 -7,-5.02 -9.67,-6.04 -1.7,-0.65 -3.62,-0.24 -4.91,1.04l-9.01 8.97c-1.33,1.32 -1.72,3.36 -0.96,5.06 0.65,1.45 1.38,2.85 2.17,4.16 0.55,0.9 0.41,2.07 -0.34,2.81l-20.35 20.35 0 6.85 5.51 0 0 -4.13c0,-1.27 1.03,-2.29 2.29,-2.29l4.13 0 0 -4.13c0,-1.27 1.03,-2.29 2.29,-2.29l6.43 0c1.27,0 2.29,1.03 2.29,2.29 0,1.27 -1.03,2.29 -2.29,2.29l-4.13 0 0 4.13c0,1.27 -1.03,2.29 -2.29,2.29l-4.13 0 0 4.13c0,1.27 -1.03,2.29 -2.29,2.29z"/>
  </g>
 </g>
</svg>
