<?xml version="1.0" encoding="UTF-8"?>
<!DOCTYPE svg PUBLIC "-//W3C//DTD SVG 1.1//EN" "http://www.w3.org/Graphics/SVG/1.1/DTD/svg11.dtd">
<!-- Creator: CorelDRAW 2018 (64-Bit) -->
<svg xmlns="http://www.w3.org/2000/svg" xml:space="preserve" width="210mm" height="297mm" version="1.1" style="shape-rendering:geometricPrecision; text-rendering:geometricPrecision; image-rendering:optimizeQuality; fill-rule:evenodd; clip-rule:evenodd"
viewBox="0 0 21000 29700"
 xmlns:xlink="http://www.w3.org/1999/xlink">
 <defs>
  <style type="text/css">
   <![CDATA[
    .fil2 {fill:#FEFEFE}
    .fil0 {fill:#9EB0C5}
    .fil4 {fill:#FEFEFE}
    .fil7 {fill:#FEFEFE;fill-rule:nonzero}
    .fil1 {fill:#9EB0C5;fill-rule:nonzero}
    .fil5 {fill:#074F93;fill-rule:nonzero}
    .fil3 {fill:black;fill-rule:nonzero}
    .fil6 {fill:url(#id1)}
   ]]>
  </style>
    <clipPath id="id0">
     <path d="M2448.8 8258.61l1595.97 0 54.69 2016.53 -1595.97 0 -54.69 -2016.53z"/>
    </clipPath>
  <linearGradient id="id1" gradientUnits="userSpaceOnUse" x1="1978.82" y1="10603.71" x2="1989.11" y2="11767">
   <stop offset="0" style="stop-opacity:1; stop-color:#E9552A"/>
   <stop offset="0.6" style="stop-opacity:1; stop-color:#F0834F"/>
   <stop offset="1" style="stop-opacity:1; stop-color:#F7B175"/>
  </linearGradient>
 </defs>
 <g id="Слой_x0020_1">
  <metadata id="CorelCorpID_0Corel-Layer"/>
  <g id="_955146256">
   <g>
    <g>
     <path class="fil0" d="M3187.39 3842.72c8.92,-4.26 11.84,-16.76 6.53,-27.87 -5.31,-11.15 -16.86,-16.76 -25.79,-12.51 -8.92,4.25 -11.84,16.76 -6.52,27.91 5.31,11.13 16.86,16.74 25.78,12.47z"/>
     <path class="fil0" d="M3214.13 3776.19c8.58,53.7 -29.64,93.96 -29.64,93.96 0,0 -31.5,-53.31 -84.49,-69.4 103.07,75.36 44.41,169.32 44.41,169.32l29.83 0c0.01,0 69.35,-119.68 39.89,-193.88z"/>
     <path class="fil0" d="M3155.96 3782.32c-0.57,-0.85 -1.16,-1.77 -1.74,-2.77 -2.73,-4.71 -3.98,-9.08 -3.98,-9.08 0,0 3.15,3.3 5.88,7.97 0.56,1 1.06,1.98 1.51,2.91 0.43,-2.24 0.93,-6.85 -1.25,-10.65 -3,-5.2 -9.93,-6.82 -9.93,-6.82 0,0 -2.06,6.82 0.94,12.03 2.18,3.79 6.42,5.66 8.57,6.41z"/>
     <path class="fil0" d="M3224.38 3821.83c1.73,1.48 5.48,4.22 9.84,4.22 6.01,0 10.87,-5.2 10.87,-5.2 0,0 -4.85,-5.19 -10.87,-5.19 -4.36,0 -8.11,2.73 -9.84,4.22 1.04,-0.07 2.12,-0.13 3.28,-0.13 5.43,0 9.87,1.08 9.87,1.08 0,0 -4.44,1.1 -9.87,1.09 -1.17,0.05 -2.24,-0.02 -3.28,-0.09z"/>
     <path class="fil0" d="M3202.55 3778.46c2.71,-4.71 5.88,-7.99 5.88,-7.99 0,0 -1.26,4.39 -3.98,9.1 -0.58,0.98 -1.17,1.92 -1.76,2.77 2.17,-0.75 6.41,-2.63 8.58,-6.4 3.01,-5.22 0.96,-12.04 0.96,-12.04 0,0 -6.94,1.64 -9.94,6.83 -2.17,3.78 -1.69,8.37 -1.25,10.64 0.43,-0.94 0.93,-1.91 1.51,-2.91z"/>
     <path class="fil0" d="M3176.9 3750.12c0,-12.11 2.43,-21.91 2.43,-21.91 0,0 2.44,9.82 2.44,21.91 0,2.56 -0.12,4.98 -0.31,7.26 3.33,-3.84 9.41,-12.17 9.41,-21.88 0,-13.36 -11.54,-24.19 -11.54,-24.19 0,0 -11.54,10.82 -11.54,24.19 0,9.71 6.08,18.03 9.4,21.88 -0.17,-2.28 -0.29,-4.69 -0.29,-7.26z"/>
     <path class="fil0" d="M3099.65 3788.18c8.42,4.85 18.65,3.74 23.65,2.79 -2.06,-0.97 -4.23,-2.1 -6.44,-3.37 -10.47,-6.04 -17.75,-13.05 -17.75,-13.05 0,0 9.71,2.8 20.18,8.85 2.22,1.28 4.25,2.58 6.15,3.9 -1.65,-4.83 -5.81,-14.24 -14.24,-19.1 -11.56,-6.69 -26.71,-2.11 -26.71,-2.11 0,0 3.59,15.41 15.16,22.09z"/>
     <path class="fil0" d="M3259 3853.53c-8.41,-4.85 -18.65,-3.76 -23.64,-2.8 2.07,0.98 4.23,2.11 6.45,3.37 10.47,6.05 17.75,13.05 17.75,13.05 0,0 -9.71,-2.78 -20.19,-8.83 -2.22,-1.3 -4.25,-2.6 -6.14,-3.91 1.66,4.82 5.82,14.23 14.22,19.09 11.56,6.69 26.72,2.11 26.72,2.11 0,0 -3.61,-15.41 -15.17,-22.08z"/>
     <path class="fil0" d="M3125.42 3854.44c-1.9,1.29 -3.93,2.59 -6.14,3.89 -10.47,6.03 -20.19,8.85 -20.19,8.85 0,0 7.28,-7.02 17.76,-13.07 2.22,-1.29 4.38,-2.38 6.45,-3.37 -4.99,-0.97 -15.25,-2.08 -23.66,2.8 -11.57,6.67 -15.18,22.08 -15.18,22.08 0,0 15.15,4.58 26.72,-2.09 8.43,-4.88 12.59,-14.29 14.24,-19.09z"/>
     <path class="fil0" d="M3233.24 3787.26c1.88,-1.3 3.92,-2.6 6.16,-3.88 10.47,-6.05 20.17,-8.84 20.17,-8.84 0,0 -7.27,7 -17.75,13.04 -2.22,1.29 -4.38,2.4 -6.43,3.37 4.98,0.97 15.23,2.09 23.63,-2.79 11.57,-6.68 15.17,-22.09 15.17,-22.09 0,0 -15.14,-4.57 -26.7,2.11 -8.44,4.86 -12.61,14.27 -14.25,19.08z"/>
     <path class="fil0" d="M3134.3 3748.6c-1.73,-2.54 -3.49,-5.27 -5.21,-8.25 -8.12,-14.03 -11.87,-27.06 -11.87,-27.06 0,0 9.4,9.75 17.51,23.82 1.72,2.96 3.2,5.85 4.52,8.63 1.3,-6.69 2.78,-20.41 -3.73,-31.69 -8.95,-15.51 -29.61,-20.35 -29.61,-20.35 0,0 -6.13,20.31 2.82,35.81 6.51,11.29 19.15,16.86 25.57,19.09z"/>
     <path class="fil0" d="M3224.37 3893.12c1.73,2.53 3.5,5.26 5.22,8.23 8.12,14.09 11.86,27.08 11.86,27.08 0,0 -9.4,-9.76 -17.52,-23.81 -1.72,-2.98 -3.2,-5.88 -4.53,-8.64 -1.27,6.69 -2.76,20.39 3.75,31.68 8.96,15.5 29.6,20.36 29.6,20.36 0,0 6.17,-20.33 -2.79,-35.83 -6.54,-11.28 -19.17,-16.85 -25.59,-19.07z"/>
     <path class="fil0" d="M3084.49 3824.12c-16.22,0 -29.37,-3.27 -29.37,-3.27 0,0 13.15,-3.28 29.37,-3.28 3.44,0 6.69,0.19 9.75,0.41 -5.14,-4.46 -16.29,-12.62 -29.34,-12.62 -17.89,0.01 -32.41,15.49 -32.41,15.49 0,0 14.53,15.48 32.41,15.47 13.04,0 24.19,-8.14 29.33,-12.59 -3.06,0.23 -6.32,0.39 -9.74,0.39z"/>
     <path class="fil0" d="M3293.76 3805.4c-13.03,0 -24.18,8.12 -29.34,12.6 3.07,-0.23 6.33,-0.41 9.75,-0.4 16.22,0 29.36,3.27 29.36,3.27 0,0 -13.14,3.27 -29.35,3.27 -3.43,0 -6.69,-0.18 -9.76,-0.4 5.15,4.46 16.31,12.6 29.34,12.6 17.9,0 32.4,-15.46 32.4,-15.46 0,0 -14.52,-15.5 -32.4,-15.48z"/>
     <path class="fil0" d="M3134.74 3904.62c-8.12,14.05 -17.52,23.82 -17.52,23.82 0,0 3.75,-13.03 11.86,-27.08 1.73,-2.96 3.49,-5.69 5.23,-8.26 -6.44,2.24 -19.08,7.82 -25.59,19.11 -8.96,15.5 -2.82,35.82 -2.82,35.82 0,0 20.67,-4.84 29.62,-20.34 6.52,-11.29 5.04,-25.02 3.75,-31.69 -1.35,2.75 -2.83,5.62 -4.53,8.62z"/>
     <path class="fil0" d="M3223.93 3737.08c8.11,-14.05 17.5,-23.8 17.5,-23.8 0,0 -3.74,13.02 -11.86,27.06 -1.71,2.95 -3.47,5.7 -5.2,8.24 6.43,-2.22 19.06,-7.81 25.57,-19.08 8.96,-15.51 2.82,-35.84 2.82,-35.84 0,0 -20.65,4.85 -29.61,20.35 -6.54,11.29 -5.05,25.01 -3.76,31.69 1.34,-2.74 2.81,-5.63 4.54,-8.62z"/>
    </g>
   </g>
   <g>
   </g>
   <g>
   </g>
   <g>
   </g>
   <g>
   </g>
   <g>
   </g>
   <g>
   </g>
   <g>
   </g>
   <g>
   </g>
   <g>
   </g>
   <g>
   </g>
   <g>
   </g>
   <g>
   </g>
   <g>
   </g>
   <g>
   </g>
   <g>
   </g>
  </g>
  <g id="_1203536080">
   <g>
    <path class="fil0" d="M2488.77 4370.16l-34.82 89.49 -31.69 -44.94 -18.63 24.35 -35.15 -58.1 -18.98 43.53 -33.16 0 -52.07 0 0 24.93 74.22 0c34.99,36.56 84.72,75.31 87.07,77.12l4.47 3.48 4.5 -3.46c2.48,-1.91 61.21,-47.26 95.13,-85.47l10.83 -12.2 -27.5 0 -24.22 -58.73z"/>
    <path class="fil0" d="M2569.63 4386.35c6.27,-12.77 11.4,-29.04 10.36,-49.87 -1.12,-22.12 -9.94,-42.92 -24.85,-58.55 -15.23,-15.96 -35.15,-24.75 -56.09,-24.75 -31.9,0 -58.02,20.43 -69.01,30.56 -10.67,-10.21 -36.07,-30.53 -69.24,-30.53 -20.94,0 -40.86,8.8 -56.09,24.78 -14.92,15.64 -23.74,36.44 -24.85,58.56 -1.05,20.88 5.4,42.27 19.73,65.4l2.15 3.47 35.41 0 28.49 -65.39 39.74 65.64 17.48 -22.75 26.28 37.3 39.13 -100.69 37.29 90.29 1.72 0 27.72 0 58.32 0 0 -23.47 -43.69 0z"/>
   </g>
   <g>
   </g>
   <g>
   </g>
   <g>
   </g>
   <g>
   </g>
   <g>
   </g>
   <g>
   </g>
   <g>
   </g>
   <g>
   </g>
   <g>
   </g>
   <g>
   </g>
   <g>
   </g>
   <g>
   </g>
   <g>
   </g>
   <g>
   </g>
   <g>
   </g>
  </g>
  <g id="_954749136">
   <path class="fil1" d="M3831.19 4747.52c-18.97,0 -28.58,3.72 -37.86,7.31 -8.57,3.31 -16.65,6.44 -33.22,6.44 -16.57,0 -24.66,-3.13 -33.22,-6.44 -9.28,-3.59 -18.89,-7.31 -37.86,-7.31 -18.96,0 -28.55,3.72 -37.83,7.31 -8.56,3.31 -16.64,6.44 -33.19,6.44 -16.56,0 -24.65,-3.13 -33.21,-6.44 -9.28,-3.59 -18.88,-7.31 -37.84,-7.31 -18.96,0 -28.56,3.72 -37.84,7.31 -8.55,3.31 -16.63,6.44 -33.19,6.44 -16.55,0 -24.62,-3.13 -33.18,-6.44 -9.27,-3.59 -18.87,-7.31 -37.82,-7.31 -3.56,0 -6.44,2.88 -6.44,6.43 0,3.56 2.88,6.44 6.44,6.44 16.55,0 24.62,3.13 33.18,6.44 9.28,3.59 18.87,7.31 37.82,7.31 18.96,0 28.56,-3.72 37.84,-7.31 8.55,-3.31 16.63,-6.44 33.19,-6.44 16.56,0 24.64,3.13 33.2,6.44 9.28,3.59 18.88,7.31 37.85,7.31 18.96,0 28.55,-3.72 37.83,-7.31 8.56,-3.31 16.64,-6.44 33.19,-6.44 16.57,0 24.66,3.13 33.22,6.44 9.29,3.59 18.89,7.31 37.86,7.31 18.97,0 28.57,-3.72 37.86,-7.31 8.56,-3.31 16.65,-6.44 33.22,-6.44 3.55,0 6.43,-2.88 6.43,-6.44 0,-3.55 -2.88,-6.43 -6.43,-6.43z"/>
   <path class="fil1" d="M3794.5 4781.88l-1.18 0.45c-3.87,1.5 -7.53,2.92 -11.88,4.05 -3.44,0.89 -5.5,4.4 -4.61,7.84 0.75,2.9 3.36,4.82 6.22,4.82 0.54,0 1.08,-0.07 1.62,-0.21 5.08,-1.32 9.25,-2.94 13.3,-4.5l1.15 -0.45c3.32,-1.28 4.97,-5 3.69,-8.31 -1.28,-3.32 -5,-4.97 -8.31,-3.69z"/>
   <path class="fil1" d="M3755.79 4788.7c-13.72,-0.5 -21.09,-3.35 -28.9,-6.37 -9.28,-3.59 -18.89,-7.31 -37.86,-7.31 -18.96,0 -28.55,3.72 -37.83,7.31 -8.56,3.31 -16.64,6.44 -33.19,6.44 -16.56,0 -24.65,-3.13 -33.21,-6.44 -9.28,-3.59 -18.88,-7.31 -37.84,-7.31 -18.96,0 -28.56,3.72 -37.84,7.31 -7.78,3.02 -15.14,5.86 -28.8,6.36 -3.55,0.13 -6.33,3.12 -6.2,6.67 0.14,3.55 3.12,6.31 6.67,6.19 15.83,-0.58 24.55,-3.96 32.98,-7.22 8.55,-3.31 16.63,-6.44 33.19,-6.44 16.56,0 24.64,3.13 33.2,6.44 9.28,3.59 18.88,7.31 37.85,7.31 18.96,0 28.55,-3.72 37.83,-7.31 8.56,-3.31 16.64,-6.44 33.19,-6.44 16.57,0 24.66,3.13 33.22,6.44 8.45,3.27 17.19,6.65 33.08,7.23 3.52,0.12 6.53,-2.65 6.66,-6.2 0.12,-3.55 -2.65,-6.53 -6.2,-6.66z"/>
   <path class="fil1" d="M3689.03 4802.52c-18.96,0 -28.55,3.72 -37.83,7.31 -8.56,3.32 -16.64,6.44 -33.19,6.44 -16.56,0 -24.65,-3.12 -33.21,-6.44 -9.28,-3.59 -18.88,-7.31 -37.84,-7.31 -3.55,0 -6.43,2.88 -6.43,6.44 0,3.55 2.88,6.43 6.43,6.43 16.56,0 24.64,3.13 33.2,6.44 9.28,3.59 18.88,7.31 37.85,7.31 18.96,0 28.55,-3.72 37.83,-7.31 8.56,-3.31 16.64,-6.44 33.19,-6.44 3.56,0 6.44,-2.88 6.44,-6.43 0,-3.56 -2.88,-6.44 -6.44,-6.44z"/>
   <path class="fil1" d="M3454.68 4786.39c-4.38,-1.13 -8.05,-2.56 -11.93,-4.06 -3.31,-1.28 -7.04,0.36 -8.32,3.67 -1.29,3.32 0.36,7.04 3.67,8.33 4.06,1.57 8.25,3.19 13.35,4.52 0.54,0.14 1.09,0.2 1.62,0.2 2.86,0 5.47,-1.92 6.22,-4.82 0.9,-3.44 -1.17,-6.95 -4.61,-7.84z"/>
   <path class="fil1" d="M3515.63 4726.91c0.24,3.39 3.06,5.98 6.41,5.98 0.15,0 0.31,-0.01 0.46,-0.02 3.54,-0.25 6.21,-3.33 5.96,-6.87 -0.15,-2.12 -0.22,-4.28 -0.22,-6.42 0,-49.53 40.29,-89.82 89.82,-89.82 29.36,0 56.92,14.4 73.73,38.52 2.04,2.91 6.04,3.63 8.96,1.6 2.91,-2.04 3.63,-6.05 1.6,-8.96 -19.22,-27.57 -50.73,-44.03 -84.29,-44.03 -56.62,0 -102.69,46.07 -102.69,102.69 0,2.44 0.09,4.91 0.26,7.33z"/>
   <path class="fil1" d="M3446.18 4713.15c-3.55,0 -6.43,2.88 -6.43,6.43 0,3.55 2.88,6.43 6.43,6.43l41.25 0c3.55,0 6.43,-2.88 6.43,-6.43 0,-3.55 -2.88,-6.43 -6.43,-6.43l-41.25 0z"/>
   <path class="fil1" d="M3618.06 4595.38c3.55,0 6.43,-2.88 6.43,-6.43l0 -41.25c0,-3.55 -2.88,-6.43 -6.43,-6.43 -3.56,0 -6.44,2.88 -6.44,6.43l0 41.25c0,3.55 2.88,6.43 6.44,6.43z"/>
   <path class="fil1" d="M3710.42 4633.64c1.65,0 3.3,-0.62 4.55,-1.88l29.17 -29.17c2.51,-2.51 2.51,-6.58 0,-9.1 -2.51,-2.51 -6.58,-2.51 -9.1,0l-29.16 29.17c-2.52,2.52 -2.52,6.59 0,9.1 1.25,1.26 2.9,1.88 4.54,1.88z"/>
   <path class="fil1" d="M3562.12 4601.36c1.03,2.47 3.43,3.97 5.95,3.97 0.82,0 1.65,-0.16 2.46,-0.49 3.28,-1.36 4.84,-5.13 3.48,-8.41l-5.26 -12.7c-1.36,-3.28 -5.12,-4.84 -8.41,-3.48 -3.28,1.36 -4.84,5.12 -3.48,8.4l5.26 12.71z"/>
   <path class="fil1" d="M3732.8 4672.05c1.02,2.48 3.42,3.97 5.94,3.97 0.82,0 1.66,-0.15 2.46,-0.49l12.71 -5.26c3.28,-1.36 4.84,-5.12 3.48,-8.4 -1.36,-3.28 -5.13,-4.84 -8.41,-3.48l-12.7 5.26c-3.28,1.36 -4.84,5.12 -3.48,8.4z"/>
   <path class="fil1" d="M3665.58 4604.84c0.81,0.33 1.64,0.49 2.46,0.49 2.53,0 4.92,-1.5 5.95,-3.97l5.26 -12.71c1.36,-3.28 -0.2,-7.04 -3.48,-8.4 -3.28,-1.36 -7.05,0.2 -8.41,3.48l-5.26 12.7c-1.36,3.28 0.2,7.05 3.48,8.41z"/>
   <path class="fil1" d="M3497.37 4676.02c2.52,0 4.92,-1.49 5.94,-3.97 1.36,-3.28 -0.19,-7.04 -3.48,-8.4l-12.7 -5.26c-3.28,-1.36 -7.05,0.19 -8.4,3.48 -1.36,3.28 0.19,7.04 3.48,8.4l12.7 5.26c0.81,0.34 1.64,0.49 2.46,0.49z"/>
   <path class="fil1" d="M3461.89 4602.75c3.17,0 6.29,0.67 9.27,1.98 2.35,1.04 5.09,0.58 6.97,-1.16 5.69,-5.28 13.01,-8.19 20.59,-8.19 14.56,0 26.76,10.29 29.72,23.97l-88.67 0c2.79,-9.58 11.65,-16.6 22.12,-16.6zm-29.46 29.47l103.12 0c3.56,0 6.44,-2.88 6.44,-6.44 0,-23.85 -19.41,-43.26 -43.27,-43.26 -9.5,0 -18.67,3.17 -26.23,8.99 -3.45,-1.08 -6.99,-1.62 -10.6,-1.62 -19.79,0 -35.9,16.1 -35.9,35.89 0,3.56 2.88,6.44 6.44,6.44z"/>
   <path class="fil1" d="M3659.55 4720.02c2.96,-13.68 15.16,-23.96 29.71,-23.96 7.59,0 14.9,2.9 20.59,8.18 1.89,1.74 4.63,2.2 6.98,1.17 2.98,-1.32 6.09,-1.99 9.26,-1.99 10.47,0 19.33,7.02 22.12,16.6l-88.66 0 0 0zm66.54 -29.46c-3.6,0 -7.15,0.54 -10.59,1.62 -7.56,-5.82 -16.74,-8.99 -26.24,-8.99 -23.85,0 -43.26,19.41 -43.26,43.26 0,3.56 2.88,6.44 6.43,6.44l103.13 0c3.55,0 6.43,-2.88 6.43,-6.44 0,-19.79 -16.1,-35.89 -35.9,-35.89z"/>
  </g>
  <g id="_954742800">
   <path class="fil1" d="M4248.44 3955.39l-274.23 0c-45.33,0 -82.2,36.87 -82.2,82.2 0,5.09 4.13,9.22 9.22,9.22l347.21 0c15.85,0 28.75,-12.89 28.75,-28.75l0 -33.92c0,-15.85 -12.9,-28.75 -28.75,-28.75zm-182.71 18.45l53.84 0 0 54.53 -53.84 0 0 -54.53zm-18.44 54.53l-53.85 0 0 -54.53 53.85 0 0 54.53zm90.73 -54.53l53.84 0 0 54.53 -53.84 0 0 -54.53zm-163.81 0l0.79 0 0 54.53 -63.87 0c4.48,-30.8 31.06,-54.53 63.08,-54.53zm284.53 44.22c0,5.68 -4.62,10.31 -10.3,10.31l-38.13 0 0 -54.53 38.13 0c5.68,0 10.3,4.62 10.3,10.3l0 33.92z"/>
   <path class="fil1" d="M3955.26 4129.35c-14.96,0 -27.13,12.17 -27.13,27.12 0,14.96 12.17,27.13 27.13,27.13 14.96,0 27.12,-12.17 27.12,-27.13 0,-14.95 -12.16,-27.12 -27.12,-27.12zm0 35.8c-4.79,0 -8.69,-3.89 -8.69,-8.68 0,-4.78 3.9,-8.68 8.69,-8.68 4.78,0 8.67,3.9 8.67,8.68 0,4.79 -3.89,8.68 -8.67,8.68z"/>
   <path class="fil1" d="M4241.67 4129.35c-14.95,0 -27.13,12.17 -27.13,27.12 0,14.96 12.18,27.13 27.13,27.13 14.96,0 27.13,-12.17 27.13,-27.13 0,-14.95 -12.17,-27.12 -27.13,-27.12zm0 35.8c-4.78,0 -8.68,-3.89 -8.68,-8.68 0,-4.78 3.9,-8.68 8.68,-8.68 4.78,0 8.68,3.9 8.68,8.68 0,4.79 -3.9,8.68 -8.68,8.68z"/>
   <path class="fil1" d="M4378.8 4128.19c0,-5.06 -4.07,-9.16 -9.11,-9.22l0 -115.07c0,-49.08 -39.94,-89.02 -89.02,-89.02l-288.78 0c-83.74,0 -151.87,68.13 -151.87,151.87l0 52.22 -1.74 0c-5.1,0 -9.23,4.12 -9.23,9.22 0,5.09 4.13,9.22 9.23,9.22l1.74 0 0 19.06c0,5.1 4.13,9.23 9.23,9.23l52.07 0c4.4,25.8 26.9,45.51 53.94,45.51 27.03,0 49.53,-19.71 53.93,-45.51l178.54 0c4.4,25.8 26.91,45.51 53.94,45.51 27.03,0 49.53,-19.71 53.94,-45.51l64.85 0c5.09,0 9.23,-4.13 9.23,-9.23l0 -19.07c5.04,-0.05 9.11,-4.15 9.11,-9.21zm-27.56 -79.33l-14.98 0c-13.16,0 -23.88,-10.71 -23.88,-23.87l0 -39.04c0,-6.68 5.44,-12.11 12.11,-12.11l20.01 0c4.32,9.13 6.74,19.31 6.74,30.06l0 44.96zm-395.98 143.9c-20.01,0 -36.29,-16.28 -36.29,-36.29 0,-20 16.28,-36.28 36.29,-36.28 20,0 36.27,16.28 36.27,36.28 0,20.01 -16.27,36.29 -36.27,36.29zm286.41 0c-20,0 -36.28,-16.28 -36.28,-36.29 0,-20 16.28,-36.28 36.28,-36.28 20.01,0 36.28,16.28 36.28,36.28 0,20.01 -16.27,36.29 -36.28,36.29zm53.94 -45.51c-4.41,-25.8 -26.91,-45.51 -53.94,-45.51 -27.03,0 -49.54,19.71 -53.94,45.51l-178.54 0c-4.4,-25.8 -26.9,-45.51 -53.93,-45.51 -27.04,0 -49.54,19.71 -53.94,45.51l-42.85 0 0 -9.84 22.85 0c5.09,0 9.23,-4.13 9.23,-9.22 0,-5.1 -4.14,-9.22 -9.23,-9.22l-22.85 0 0 -52.22c0,-73.57 59.85,-133.42 133.42,-133.42l288.78 0c20.14,0 38.31,8.49 51.18,22.06l-7.36 0c-16.84,0 -30.55,13.71 -30.55,30.56l0 39.04c0,23.33 18.99,42.32 42.32,42.32l14.98 0 0 23.37 -8.72 0c-5.09,0 -9.23,4.13 -9.23,9.22 0,5.1 4.14,9.22 9.23,9.22l8.72 0 0 9.85 -24.71 0c-5.1,0 -9.22,4.12 -9.22,9.22 0,5.09 4.12,9.22 9.22,9.22l24.71 0 0 9.84 -55.63 0z"/>
  </g>
  <g id="_957271872">
   <path class="fil0" d="M5072.66 4612.2l8.17 0.53c0.4,8.13 -1.74,20.81 2.38,26.07 3.09,3.95 11.78,12.75 16.71,14.88l31.31 -32.54c7.68,-7.18 5.02,-14.64 5.02,-27.56 0,-11.47 0,-22.95 0,-34.42 -14.38,9.5 -43.32,46.31 -55.09,51.97l-0.11 -35.01c11.22,-9.3 12.47,-12.54 17.78,-17.13l-18.27 -0.29 0.53 17.36 -8.53 0 0.1 36.14z"/>
   <path class="fil0" d="M5121.53 4676.1l21.45 0c4.89,2.67 3.25,0.54 3.34,8.27l2.48 -0.09 32.2 0 -0.33 -7.81 -34.03 0.21c9.95,-11.97 48.82,-46.49 52.58,-54.84 -75.08,-0.97 -48.91,-6.57 -94.87,37.79l17.18 16.47z"/>
   <path class="fil0" d="M5072.66 4612.2c-3.59,-4.84 -50.63,-51.22 -54.53,-53.47 -0.21,10.61 -0.08,21.31 -0.08,31.94 0,14.7 -2.25,23.77 3.5,29.75 8.01,8.34 25.85,26.95 34.13,32.96 4.01,-2.13 12.05,-10.04 15.09,-14.13 3.94,-5.3 2.46,-18.92 1.89,-27.05z"/>
   <path class="fil0" d="M5071.31 4750.52c-0.67,-3.15 -1.2,-2.47 1.96,-1.66 -2.52,-23.62 8.43,-19.9 -17.59,-41.02 -6.64,3.94 -27.95,25.74 -33.56,32.62 -6.37,7.8 -4.07,16.6 -4.07,29.18 0,10.38 -0.63,22.84 0.34,32.95l52.92 -52.07z"/>
   <path class="fil0" d="M5081.63 4723.64c-0.05,8.49 -1.77,20.93 1.95,27.25 5.83,4.33 43.53,46.96 52.64,51.2l0.12 -48.53c0.02,-8.88 0.38,-8.73 -4.54,-13.5 -10.31,-10 -23.41,-24.33 -33.84,-32.53l-16.33 16.11z"/>
   <path class="fil0" d="M5033.76 4685.61c-7.83,-1.28 -18.65,-1.45 -26.31,0.34 -7.69,6.78 -48.62,46.88 -52.34,53.22l48.25 0.18c8.97,0.07 8.86,0.97 13.78,-3.89 6.61,-6.51 29.37,-28.39 32.53,-34.2l-15.91 -15.65z"/>
   <path class="fil0" d="M5148.13 4686.56c-4.15,-2.22 0.97,-1.27 -6.53,-1.72 -1.83,-0.11 -5.3,0.13 -7.35,0.14 -4.61,0.03 -9.05,-0.01 -13.68,0.17l-16.13 15.79c2.05,4.48 28.32,28.83 32.86,33.63 6.81,7.19 12.94,4.71 28.96,4.71 10.17,-0.01 23.29,0.72 33.08,-0.44l-51.21 -52.28z"/>
   <path class="fil0" d="M5007.49 4676.18l26.21 -0.45c5.23,-2.36 14.37,-11.8 16.35,-17.26 -3,-2.52 -4.84,-4.98 -7.95,-7.66 -19.2,-16.56 -24.59,-28.89 -35.78,-29.13 -5.69,-0.12 -11.82,0.11 -17.58,0.11 -11.1,0 -22.21,0 -33.32,0l52.07 54.39z"/>
   <path class="fil0" d="M5059.53 4661.18c6.53,4.69 10.57,12.36 17.97,15.89l17.34 -16.26c-3,-6.27 -12.34,-14.02 -17.53,-18.75 -4.64,3.65 -15.05,13.04 -17.78,19.12z"/>
   <path class="fil0" d="M5081.05 4680.88c4.71,7.71 11.14,11.53 16.16,17.76 5.82,-1.98 6.2,-3.78 10.41,-8.01 4.97,-4.99 5.84,-4.49 8.09,-9.75l-16.53 -17.25c-4.86,2.19 -15.05,13.2 -18.13,17.25z"/>
   <path class="fil0" d="M5060.32 4701.17c3.33,4.8 13.1,15.38 19.29,18.06l15.56 -16.15c-2.46,-5.6 -13.19,-15.49 -17.67,-18.87l-17.18 16.96z"/>
   <polygon class="fil0" points="5038.74,4680.25 5056.92,4698.35 5074.38,4681.15 5056.31,4662.63 "/>
   <polygon class="fil0" points="5007.49,4676.18 4973.09,4676.56 4972.53,4684.46 5007.34,4684.27 "/>
   <polygon class="fil0" points="5080.09,4749.48 5073.27,4748.86 5073.42,4785.07 5080.28,4785.07 "/>
   <path class="fil0" d="M5080.09 4749.48l0.19 35.59 -6.86 0 -0.15 -36.21c-3.16,-0.81 -2.63,-1.49 -1.96,1.66l-0.04 36.42 0.27 16.18 2.05 0.44 -0.08 -17.06 6.62 0 0.01 16.89 1.95 -0.27 0.23 -16.26c-0.76,-4.82 -2.95,-32.05 1.26,-35.97 -3.72,-6.32 -2,-18.76 -1.95,-27.25 -0.19,0.39 -0.51,0.5 -0.57,1.19 -0.06,0.68 -0.42,0.88 -0.49,1.23 -0.96,4.8 -0.06,-1.6 -0.49,2.75 -0.16,1.65 0.03,5.5 0.05,7.37 0.05,4.43 0.05,8.91 -0.04,13.3z"/>
   <path class="fil0" d="M4954.9 4683.25c-3.31,-1.18 -2.7,-1.81 -2.04,1.63l0.68 14.92c3.29,7.24 1.7,1.61 1.94,1.54l-0.64 -15.67c5.01,0 12.17,-1.16 16.44,1.36 7.23,-2.92 26.98,-1.46 36.17,-1.08 7.66,-1.79 18.48,-1.62 26.31,-0.34 -2.47,-2.19 0.61,-2.25 -11.54,-2.11 -4.48,0.05 -8.97,0.01 -13.45,0.01l-0.01 -5.99c7.18,0 19.67,2.1 24.94,-1.79l-26.21 0.45 -0.15 8.09 -34.81 0.19 0.56 -7.9c0.53,-2.91 1.18,-2.23 -1.7,-2.23l-0.07 2.33 -0.16 7.71 -16.26 -1.12z"/>
   <path class="fil0" d="M5208.46 4676.64l18.05 0.03c-2.73,-5.31 -3.52,-4.85 -8.52,-9.67 -3.42,-3.3 -5.18,-5.62 -9.2,-7.81l-0.33 17.45z"/>
   <path class="fil0" d="M4946.39 4676.45l-0.51 -16.98c-4.63,2.02 -6.25,4.5 -9.06,7.32 -4.89,4.92 -5.67,4.47 -8.37,9.87l17.94 -0.21z"/>
   <path class="fil0" d="M5120.57 4685.15c4.63,-0.18 9.07,-0.14 13.68,-0.17 2.05,-0.01 5.52,-0.25 7.35,-0.14 7.5,0.45 2.38,-0.5 6.53,1.72 1.73,-2.29 13.17,-0.81 16.68,-0.81 3.42,0 6.82,-0.01 10.24,-0.06 6.36,-0.08 4.71,-0.67 8.98,1.11 1.03,-1.3 -0.19,-0.67 2.71,-1.05 1.06,-0.14 3.03,-0.14 4.15,-0.15 2.88,-0.04 5.91,0.07 8.82,0.07l0.1 -1.85 -17.33 0.47 0.18 -8.02 -1.99 0.2 0.33 7.81 -32.2 0 -2.48 0.09c-0.09,-7.73 1.55,-5.6 -3.34,-8.27l-21.45 0c1.91,1.37 -1.75,0.88 3.94,1.48l19.42 -0.06 -0.01 5.99c-5.88,0 -19.26,-1.31 -24.31,1.64z"/>
   <path class="fil0" d="M5072.45 4574.8l0.14 -16.33 -17.52 0c2.76,5.3 11.98,13.87 17.38,16.33z"/>
   <path class="fil0" d="M4954.09 4676.33l17.23 0.33 0.07 -2.33c-7.21,-3.74 -10.46,-12.01 -17.01,-14.9l-0.29 16.9z"/>
   <path class="fil0" d="M5208.84 4702.14c5.2,-4.62 14.06,-11.35 17.31,-17.29l-17.44 0.02 0.13 17.27z"/>
   <path class="fil0" d="M5072.97 4812.01l-18.07 0.23c2.14,1.93 6.2,5.78 8.35,8.05 3.65,3.89 3.48,5.95 9.31,8.6l0.41 -16.88z"/>
   <path class="fil0" d="M5072.97 4549.76l-0.44 -16.88c-5.51,2.51 -5.17,3.98 -8.59,7.84 -2.06,2.32 -6.85,6.85 -9.03,8.52l18.06 0.52z"/>
   <polygon class="fil0" points="5080.71,4549.63 5098.94,4549.61 5081.37,4532.55 "/>
   <path class="fil0" d="M4945.78 4701.96l0.18 -16.39 -17.11 -0.74c2.02,3.89 0.8,2.17 4,5.43l12.93 11.7z"/>
   <polygon class="fil0" points="5080.71,4812.14 5081.06,4828.85 5099.09,4812.47 "/>
   <polygon class="fil0" points="5182.66,4676.27 5199.92,4676.73 5199.8,4659.26 "/>
   <path class="fil0" d="M5082.09 4803.12l16.88 -0.29c-2.63,-2.91 -5.12,-4.72 -7.7,-7.68 -3.84,-4.4 -4.7,-5.5 -8.95,-8.29l-0.23 16.26z"/>
   <path class="fil0" d="M5199.71 4685.67c-2.91,0 -5.94,-0.11 -8.82,-0.07 -1.12,0.01 -3.09,0.01 -4.15,0.15 -2.9,0.38 -1.68,-0.25 -2.71,1.05 12.17,9.35 7.2,11.01 15.89,15.17l-0.21 -16.3z"/>
   <path class="fil0" d="M5071.54 4803.12l-0.27 -16.18c-3.15,2.16 -5.65,4.33 -8.52,7.26 -3.49,3.55 -3.96,5.69 -7.85,8.23l16.64 0.69z"/>
   <path class="fil0" d="M4955.48 4701.34l15.8 -14.31c-4.27,-2.52 -11.43,-1.36 -16.44,-1.36l0.64 15.67z"/>
   <path class="fil0" d="M4954.9 4683.25l16.26 1.12 0.16 -7.71 -17.23 -0.33c1.47,2.16 1.51,2.49 2.52,4.55l-1.71 2.37z"/>
   <path class="fil0" d="M5073.59 4803.56c0.15,-0.09 3.05,-1.39 3.91,-1.97 1.28,1.97 1.78,1.25 2.64,1.8l-0.01 -16.89 -6.62 0 0.08 17.06z"/>
   <path class="fil0" d="M5199.81 4683.82c2.95,1.35 -0.2,-0.12 2.85,1.49 1.56,0.82 0.75,0.54 3.49,1.83l4.73 -5.72c-0.57,-1.4 -1.57,-3.08 -2.42,-4.78 -2.42,-1.21 -1.86,-0.56 -4.19,-2.55l-5.96 5.34c0.67,1.62 1.03,3.22 1.5,4.39z"/>
   <path class="fil0" d="M5072.97 4549.76l-2.2 4.53 5.42 5.59c0.83,-0.25 4.02,-1.06 4.37,-1.18 1.18,-2.96 -0.24,-1.3 2.59,-4.41 -1.02,-1.8 -1.48,-2.77 -2.44,-4.66 -1.71,-0.66 -1.83,-0.37 -3.51,-2.09 -3.25,2.97 -1.86,1.39 -4.23,2.22z"/>
   <path class="fil0" d="M5073.59 4803.56c-1.27,2.51 -0.03,1.53 -2.82,3.91 0.28,0.4 0.86,1.3 0.98,1.54 1.09,2.33 0.24,0.3 1.22,3 2.36,0.84 0.94,-0.79 4.23,2.22 1.82,-1.87 1.98,-1.4 3.51,-2.09 0.85,-1.59 1.56,-3.1 2.44,-4.67l-3.01 -4.08c-0.86,-0.55 -1.36,0.17 -2.64,-1.8 -0.86,0.58 -3.76,1.88 -3.91,1.97z"/>
   <path class="fil0" d="M4946.39 4676.45c-1.34,3.38 -0.17,0.18 -1.25,2.84 -0.19,0.46 -0.56,1.34 -0.65,1.81l4.53 5.89 3.84 -2.11c-0.66,-3.44 -1.27,-2.81 2.04,-1.63l1.71 -2.37c-1.01,-2.06 -1.05,-2.39 -2.52,-4.55l-3.5 -2.03c-2.78,2.29 -1.53,1.1 -4.2,2.15z"/>
  </g>
  <g id="_957277792">
   <path class="fil1" d="M4520.05 4741.38l-31.8 0c5.53,-3.12 10.63,-7.23 15.05,-12.65 1.67,-2.05 1.36,-5.08 -0.69,-6.75 -2.06,-1.68 -5.08,-1.37 -6.76,0.69 -12.41,15.23 -31.84,18.22 -51.14,18.71l-19.13 0c-1.71,-1.91 -4.26,-3.25 -6.49,-4.41 -0.76,-0.4 -1.85,-0.97 -2.65,-1.46 0.46,-0.86 1.16,-1.96 1.64,-2.72 1.3,-2.05 2.77,-4.39 3.32,-6.79l16.59 -9.58c16.96,-9.24 35.29,-16.37 53.68,-9.38 2.47,0.94 5.25,-0.31 6.19,-2.78 0.94,-2.48 -0.3,-5.25 -2.78,-6.19 -6.53,-2.49 -12.99,-3.5 -19.34,-3.45l27.53 -15.89c2.3,-1.32 3.08,-4.26 1.76,-6.56 -1.33,-2.29 -4.27,-3.08 -6.56,-1.75l-27.68 15.98c3.28,-5.51 5.67,-11.66 6.8,-18.63 0.42,-2.62 -1.36,-5.08 -3.97,-5.51 -2.62,-0.42 -5.09,1.36 -5.51,3.98 -3.25,20.11 -19.6,32.6 -36.74,42.87 -3.79,2.1 -13.53,7.78 -14.74,8.47 -2.41,-0.77 -5.25,-0.66 -7.73,-0.55 -0.89,0.04 -2.16,0.09 -3.12,0.06 -0.03,-0.96 0.02,-2.23 0.06,-3.12 0.11,-2.46 0.22,-5.27 -0.53,-7.65 0.7,-1.23 6.39,-11 8.49,-14.78 10.28,-17.14 22.76,-33.5 42.87,-36.74 2.62,-0.42 4.4,-2.89 3.97,-5.51 -0.42,-2.61 -2.87,-4.39 -5.5,-3.97 -6.97,1.12 -13.12,3.52 -18.63,6.8l15.98 -27.68c1.33,-2.3 0.54,-5.23 -1.75,-6.56 -2.3,-1.32 -5.24,-0.54 -6.56,1.76l-15.89 27.53c0.06,-6.34 -0.96,-12.81 -3.44,-19.34 -0.95,-2.48 -3.72,-3.72 -6.2,-2.78 -2.47,0.94 -3.72,3.72 -2.78,6.19 6.99,18.38 -0.14,36.71 -9.38,53.68l-9.54 16.53c-2.43,0.53 -4.8,2.03 -6.87,3.33 -0.76,0.49 -1.86,1.19 -2.73,1.65 -0.48,-0.8 -1.05,-1.89 -1.45,-2.65 -1.16,-2.22 -2.49,-4.76 -4.38,-6.47 -0.01,-1.39 0.04,-12.63 -0.03,-16.94 0.32,-20 2.94,-40.43 18.75,-53.31 2.06,-1.68 2.37,-4.7 0.69,-6.76 -1.67,-2.05 -4.7,-2.36 -6.75,-0.69 -5.47,4.46 -9.6,9.62 -12.73,15.2l0 -31.95c0,-2.65 -2.15,-4.8 -4.8,-4.8 -2.65,0 -4.8,2.15 -4.8,4.8l0 31.81c-3.13,-5.54 -7.23,-10.64 -12.65,-15.05 -2.06,-1.68 -5.08,-1.37 -6.75,0.68 -1.68,2.06 -1.37,5.08 0.68,6.76 15.25,12.42 18.23,31.87 18.72,51.18l0 19.01c-1.94,1.71 -3.29,4.28 -4.46,6.53 -0.39,0.76 -0.96,1.85 -1.45,2.65 -0.86,-0.46 -1.97,-1.16 -2.73,-1.64 -2.04,-1.3 -4.37,-2.77 -6.77,-3.32l-9.55 -16.55c-9.24,-16.96 -16.38,-35.29 -9.38,-53.67 0.94,-2.48 -0.31,-5.25 -2.78,-6.2 -2.48,-0.94 -5.25,0.31 -6.2,2.78 -2.48,6.53 -3.49,13 -3.44,19.34l-15.89 -27.53c-1.33,-2.29 -4.26,-3.08 -6.56,-1.75 -2.29,1.32 -3.08,4.26 -1.76,6.55l15.99 27.68c-5.51,-3.28 -11.66,-5.67 -18.63,-6.8 -2.62,-0.42 -5.08,1.36 -5.51,3.97 -0.42,2.62 1.36,5.09 3.98,5.51 20.11,3.25 32.59,19.6 42.87,36.74 2.1,3.79 7.76,13.49 8.44,14.68 -0.79,2.41 -0.67,5.26 -0.57,7.75 0.04,0.89 0.1,2.16 0.07,3.12 -0.96,0.03 -2.24,-0.02 -3.12,-0.06 -2.47,-0.11 -5.29,-0.22 -7.68,0.54 -1.2,-0.69 -10.93,-6.36 -14.72,-8.46 -17.14,-10.28 -33.49,-22.76 -36.73,-42.87 -0.43,-2.62 -2.88,-4.4 -5.51,-3.97 -2.61,0.42 -4.39,2.88 -3.97,5.5 1.12,6.97 3.52,13.12 6.8,18.63l-27.68 -15.98c-2.3,-1.33 -5.23,-0.54 -6.56,1.75 -1.32,2.3 -0.54,5.24 1.76,6.56l27.53 15.89c-6.35,-0.05 -12.81,0.96 -19.34,3.45 -2.48,0.94 -3.72,3.71 -2.78,6.19 0.94,2.48 3.71,3.72 6.19,2.78 18.39,-6.99 36.72,0.15 53.69,9.39l16.48 9.51c0.54,2.43 2.03,4.78 3.33,6.84 0.49,0.77 1.19,1.87 1.65,2.74 -0.8,0.48 -1.89,1.05 -2.65,1.45 -2.24,1.17 -4.8,2.51 -6.51,4.42 -1.36,0.01 -12.53,-0.04 -16.83,0.03 -20.01,-0.31 -40.46,-2.94 -53.34,-18.75 -1.68,-2.06 -4.7,-2.37 -6.76,-0.69 -2.05,1.67 -2.36,4.7 -0.69,6.75 4.46,5.47 9.61,9.6 15.2,12.73l-31.95 0c-2.65,0 -4.8,2.15 -4.8,4.8 0,2.66 2.15,4.8 4.8,4.8l31.81 0c-5.54,3.13 -10.64,7.23 -15.06,12.65 -1.67,2.06 -1.36,5.08 0.69,6.76 0.89,0.72 1.97,1.08 3.03,1.08 1.39,0 2.78,-0.61 3.73,-1.77 12.41,-15.23 31.83,-18.23 51.12,-18.72l19.07 0c1.71,1.91 4.26,3.25 6.49,4.42 0.76,0.39 1.85,0.96 2.65,1.45 -0.46,0.86 -1.16,1.97 -1.65,2.73 -1.3,2.06 -2.79,4.42 -3.33,6.84l-16.49 9.52c-16.96,9.24 -35.29,16.38 -53.68,9.39 -2.47,-0.95 -5.25,0.3 -6.19,2.77 -0.94,2.48 0.3,5.25 2.78,6.2 6.35,2.41 12.64,3.44 18.81,3.44 0.18,0 0.36,0 0.54,-0.01l-27.54 15.9c-2.29,1.33 -3.08,4.26 -1.76,6.56 0.89,1.54 2.51,2.4 4.17,2.4 0.81,0 1.64,-0.21 2.39,-0.64l27.68 -15.98c-3.28,5.5 -5.67,11.66 -6.8,18.62 -0.42,2.62 1.36,5.08 3.97,5.51 0.26,0.04 0.52,0.06 0.78,0.06 2.31,0 4.35,-1.68 4.73,-4.04 3.25,-20.11 19.6,-32.59 36.74,-42.87 3.79,-2.1 13.51,-7.77 14.72,-8.45 2.39,0.75 5.2,0.64 7.67,0.53 0.88,-0.03 2.16,-0.09 3.12,-0.06 0.03,0.96 -0.03,2.24 -0.07,3.12 -0.1,2.49 -0.22,5.34 0.57,7.75 -0.68,1.19 -6.34,10.9 -8.44,14.68 -10.28,17.15 -22.76,33.5 -42.87,36.74 -2.62,0.43 -4.4,2.89 -3.97,5.51 0.38,2.36 2.42,4.03 4.73,4.03 0.25,0 0.51,-0.02 0.77,-0.06 6.97,-1.12 13.12,-3.52 18.63,-6.79l-15.98 27.67c-1.33,2.3 -0.54,5.23 1.75,6.56 0.76,0.44 1.58,0.64 2.4,0.64 1.66,0 3.27,-0.86 4.16,-2.4l15.89 -27.53c-0.05,6.35 0.96,12.81 3.45,19.34 0.72,1.92 2.55,3.1 4.48,3.1 0.57,0 1.15,-0.1 1.71,-0.32 2.48,-0.94 3.72,-3.71 2.78,-6.19 -6.99,-18.38 0.14,-36.71 9.38,-53.67l9.56 -16.56c2.39,-0.55 4.72,-2.02 6.76,-3.31 0.76,-0.49 1.87,-1.19 2.73,-1.65 0.49,0.8 1.06,1.89 1.46,2.65 1.17,2.26 2.52,4.83 4.46,6.54 0.01,1.38 -0.04,12.56 0.03,16.87 -0.32,20 -2.94,40.44 -18.75,53.32 -2.06,1.67 -2.37,4.69 -0.69,6.75 0.95,1.16 2.33,1.77 3.72,1.77 1.07,0 2.14,-0.35 3.03,-1.08 5.47,-4.46 9.6,-9.61 12.73,-15.2l0 31.95c0,2.66 2.15,4.8 4.8,4.8 2.65,0 4.8,-2.14 4.8,-4.8l0 -31.81c3.13,5.54 7.23,10.64 12.65,15.06 0.89,0.72 1.97,1.08 3.03,1.08 1.4,0 2.78,-0.61 3.72,-1.77 1.68,-2.06 1.37,-5.08 -0.68,-6.76 -15.25,-12.42 -18.23,-31.87 -18.72,-51.18l0 -19.08c1.89,-1.71 3.22,-4.24 4.37,-6.46 0.4,-0.76 0.97,-1.85 1.45,-2.65 0.87,0.46 1.97,1.16 2.73,1.64 2.07,1.32 4.44,2.81 6.87,3.34l9.54 16.53c9.24,16.97 16.37,35.29 9.38,53.68 -0.94,2.48 0.31,5.25 2.78,6.19 0.56,0.21 1.14,0.31 1.71,0.31 1.93,0 3.76,-1.18 4.49,-3.09 2.48,-6.53 3.5,-12.99 3.44,-19.34l15.89 27.53c0.89,1.54 2.5,2.4 4.16,2.4 0.82,0 1.64,-0.21 2.4,-0.64 2.29,-1.33 3.08,-4.27 1.75,-6.56l-15.98 -27.68c5.51,3.28 11.66,5.67 18.63,6.8 0.26,0.04 0.52,0.06 0.77,0.06 2.31,0 4.36,-1.68 4.74,-4.03 0.42,-2.62 -1.36,-5.09 -3.98,-5.51 -20.11,-3.25 -32.59,-19.59 -42.87,-36.74 -2.1,-3.78 -7.79,-13.55 -8.49,-14.78 0.75,-2.39 0.64,-5.19 0.53,-7.65 -0.04,-0.89 -0.09,-2.16 -0.06,-3.12 0.96,-0.03 2.23,0.02 3.12,0.06 2.48,0.11 5.32,0.22 7.73,-0.55 1.21,0.69 10.96,6.37 14.75,8.47 17.14,10.28 33.49,22.76 36.73,42.87 0.38,2.36 2.42,4.04 4.74,4.04 0.25,0 0.51,-0.02 0.77,-0.06 2.61,-0.43 4.39,-2.89 3.97,-5.51 -1.12,-6.97 -3.52,-13.12 -6.8,-18.63l27.68 15.98c0.76,0.44 1.58,0.65 2.4,0.65 1.66,0 3.27,-0.86 4.16,-2.4 1.32,-2.3 0.54,-5.23 -1.76,-6.56l-27.54 -15.9c0.18,0 0.36,0.01 0.54,0.01 6.17,0 12.46,-1.03 18.81,-3.44 2.48,-0.95 3.72,-3.72 2.78,-6.2 -0.94,-2.47 -3.71,-3.72 -6.19,-2.78 -18.39,7 -36.72,-0.14 -53.69,-9.39l-16.58 -9.57c-0.55,-2.4 -2.02,-4.74 -3.32,-6.78 -0.48,-0.76 -1.18,-1.87 -1.64,-2.73 0.8,-0.49 1.89,-1.06 2.65,-1.46 2.23,-1.16 4.79,-2.5 6.5,-4.42 1.4,-0.01 15.15,0 16.97,-0.03 20,0.32 40.42,2.95 53.29,18.75 0.95,1.17 2.34,1.77 3.73,1.77 1.07,0 2.14,-0.35 3.03,-1.08 2.05,-1.67 2.36,-4.69 0.69,-6.75 -4.46,-5.47 -9.61,-9.6 -15.2,-12.73l31.95 0c2.66,0 4.8,-2.15 4.8,-4.8 0,-2.65 -2.14,-4.8 -4.8,-4.8zm-110.08 23.42c0.2,0.31 0.44,0.68 0.68,1.07 -0.48,-0.01 -0.95,-0.03 -1.34,-0.05 -3.94,-0.17 -8.02,-0.34 -10.71,2.35 -2.7,2.69 -2.52,6.77 -2.35,10.71 0.02,0.39 0.03,0.86 0.05,1.34 -0.39,-0.24 -0.76,-0.47 -1.08,-0.67 -3.35,-2.13 -6.82,-4.33 -10.53,-3.34 -3.63,0.97 -5.5,4.55 -7.3,8.01 -0.21,0.4 -0.47,0.9 -0.74,1.4 -0.27,-0.5 -0.53,-1 -0.74,-1.4 -1.8,-3.46 -3.67,-7.04 -7.3,-8.01 -0.64,-0.17 -1.26,-0.24 -1.88,-0.24 -3.02,0 -5.88,1.81 -8.66,3.58 -0.31,0.2 -0.69,0.43 -1.07,0.67 0.01,-0.48 0.03,-0.95 0.05,-1.34 0.17,-3.94 0.34,-8.02 -2.35,-10.71 -2.7,-2.69 -6.77,-2.52 -10.71,-2.35 -0.39,0.02 -0.86,0.04 -1.34,0.05 0.24,-0.39 0.47,-0.76 0.67,-1.07 2.13,-3.35 4.33,-6.82 3.34,-10.54 -0.97,-3.63 -4.55,-5.5 -8.01,-7.3 -0.4,-0.21 -0.9,-0.47 -1.4,-0.74 0.5,-0.27 1,-0.53 1.4,-0.74 3.46,-1.8 7.04,-3.67 8.01,-7.3 0.99,-3.71 -1.21,-7.18 -3.34,-10.54 -0.2,-0.31 -0.43,-0.68 -0.67,-1.07 0.48,0.01 0.95,0.03 1.34,0.05 3.94,0.17 8.02,0.34 10.71,-2.35 2.69,-2.69 2.52,-6.77 2.35,-10.71 -0.02,-0.39 -0.04,-0.86 -0.05,-1.34 0.39,0.24 0.76,0.47 1.07,0.67 3.36,2.13 6.82,4.33 10.54,3.34 3.63,-0.97 5.5,-4.55 7.3,-8.01 0.21,-0.4 0.47,-0.9 0.74,-1.4 0.27,0.5 0.53,1 0.74,1.4 1.8,3.46 3.67,7.04 7.3,8.01 3.71,1 7.18,-1.21 10.54,-3.34 0.31,-0.19 0.68,-0.43 1.07,-0.67 -0.01,0.48 -0.03,0.95 -0.05,1.34 -0.17,3.94 -0.34,8.02 2.35,10.71 2.69,2.7 6.77,2.52 10.71,2.35 0.39,-0.02 0.86,-0.04 1.34,-0.05 -0.24,0.39 -0.47,0.76 -0.67,1.07 -2.13,3.36 -4.33,6.83 -3.34,10.54 0.97,3.63 4.55,5.5 8.01,7.3 0.4,0.21 0.9,0.47 1.4,0.74 -0.5,0.27 -1,0.53 -1.4,0.74 -3.46,1.8 -7.04,3.67 -8.01,7.3 -0.99,3.72 1.21,7.19 3.33,10.54z"/>
   <path class="fil1" d="M4398.54 4733.58c-1.32,-2.3 -4.26,-3.08 -6.56,-1.76l-10.53 6.09 0 -12.17c0,-2.65 -2.15,-4.8 -4.8,-4.8 -2.65,0 -4.8,2.15 -4.8,4.8l0 12.17 -10.54 -6.09c-2.3,-1.32 -5.23,-0.54 -6.56,1.76 -1.32,2.3 -0.54,5.23 1.76,6.56l10.54 6.08 -10.54 6.08c-2.3,1.33 -3.08,4.26 -1.76,6.56 0.89,1.54 2.51,2.4 4.16,2.4 0.82,0 1.65,-0.21 2.4,-0.64l10.54 -6.08 0 12.16c0,2.65 2.15,4.8 4.8,4.8 2.65,0 4.8,-2.15 4.8,-4.8l0 -12.16 10.53 6.08c0.76,0.43 1.59,0.64 2.4,0.64 1.66,0 3.27,-0.86 4.16,-2.4 1.33,-2.3 0.54,-5.23 -1.76,-6.56l-10.53 -6.08 10.53 -6.08c2.3,-1.33 3.09,-4.26 1.76,-6.56z"/>
  </g>
  <path class="fil1" d="M4869.9 5118.22c-18.38,-25.01 -43.6,-43.35 -72.93,-53.04 -14.96,-4.95 -30.62,-7.46 -46.53,-7.46 -21.08,0 -41.44,4.33 -60.53,12.89 -38.95,17.44 -68.5,50.8 -81.07,91.51 -4.35,14.12 -6.56,28.85 -6.56,43.76 0,23.58 5.37,46.12 15.97,67 10.11,19.91 24.88,37.58 42.72,51.11 25.92,19.66 56.85,30.05 89.47,30.05 23.63,0 46.22,-5.39 67.12,-16.04 24,-12.21 44.25,-30.75 58.56,-53.61 14.71,-23.5 22.49,-50.65 22.49,-78.51l0 -0.08c-0.02,-31.77 -9.95,-62.05 -28.71,-87.58zm12.64 70.6c-40.92,-32.11 -90.73,-51.26 -142.71,-54.77 0.9,-6.47 -0.06,-12.45 -2.82,-17.33 17.2,-15.35 36.63,-27.58 57.87,-36.44 47.77,16.87 81.31,59.02 87.66,108.54zm-168.38 -37.14c-2.38,2.4 -4.97,4.47 -7.67,6.16 -6.6,4.16 -13.61,5.82 -18.31,4.36 -1.25,-0.4 -2.31,-1.02 -3.13,-1.85 -2.56,-2.55 -3.07,-7.46 -1.36,-13.13 1.65,-5.5 5.22,-11.18 10.03,-15.99 2.7,-2.69 5.63,-4.98 8.74,-6.8 7.76,-4.55 15.67,-5.53 19.75,-2.41 0.21,0.16 0.42,0.34 0.63,0.55 2.94,2.94 3.15,8.84 0.55,15.44 -0.04,0.08 -0.07,0.17 -0.11,0.26 -1.89,4.7 -5.04,9.34 -9.12,13.41zm57.91 -77.25c-16.82,8.75 -32.41,19.62 -46.56,32.49 -6.14,-2.33 -13.54,-2.22 -21.17,0.29 -1.39,-8.28 -2.52,-16.65 -3.39,-25.02 15.71,-6.31 32.33,-9.51 49.49,-9.51 7.29,0 14.51,0.59 21.63,1.75zm-85.44 14.49c1,8.56 2.26,17.1 3.78,25.53 -2.55,1.84 -4.99,3.92 -7.27,6.2 -5.39,5.39 -9.56,11.5 -12.21,17.87 -14.23,2.85 -28.19,6.9 -41.72,12.09 11.92,-26.15 32.05,-47.83 57.42,-61.69zm-55.03 177.18c-9.53,-18.76 -14.36,-39.02 -14.36,-60.22 0,-12.3 1.67,-24.45 4.97,-36.16 14.63,-6.56 29.89,-11.66 45.53,-15.21 0.22,6.49 2.5,12.19 6.73,16.42 0.48,0.49 0.99,0.94 1.51,1.38 -15.16,30.46 -23.15,64.43 -23.15,98.7 0,9.12 0.57,18.22 1.68,27.24 -9.17,-9.53 -16.95,-20.4 -22.91,-32.15zm40.64 47.61c-2.94,-13.97 -4.45,-28.31 -4.45,-42.7 0,-32.47 7.69,-64.64 22.27,-93.39 0.63,0.04 1.26,0.07 1.9,0.07 4.54,0 9.34,-0.99 14.16,-2.91 19.77,57.53 52.46,110.51 95.16,154.25 -16.07,6.67 -33.12,10.05 -50.84,10.05 -28.4,0 -55.38,-8.76 -78.2,-25.37zm191.19 -37.26c-11.92,19.04 -28.42,34.74 -47.93,45.68 -43.6,-43.54 -76.72,-96.93 -96.19,-155.04 1.88,-1.48 3.7,-3.09 5.44,-4.82 4.11,-4.11 7.54,-8.72 10.12,-13.53 54.86,2.81 107.36,24.12 148.71,60.39 -0.58,23.91 -7.5,47.12 -20.15,67.32z"/>
  <path class="fil1" d="M5024.22 5925.43c0,10.66 -1.75,21.23 -5.13,31.28 -15.91,71.92 -153.47,159.01 -159.35,162.73 -1.85,1.2 -3.8,1.72 -6,1.72 -2.07,0 -4.13,-0.52 -5.97,-1.72 -1.53,-0.98 -40.36,-25.4 -79.58,-59.08 -4.69,-4.04 -5.22,-11.01 -1.32,-15.7 4.06,-4.69 11.14,-5.22 15.83,-1.31 29.18,25.08 58.84,45.22 71.15,53.4 41.32,-26.93 132.54,-95.49 143.67,-145.92 2.93,-8.94 4.25,-17.12 4.25,-25.29 0,-28.68 -15.58,-55.17 -40.78,-69.01 -32.14,-17.88 -75.08,-9.59 -98.63,18.64 -4.24,5.11 -12.86,5.11 -17.22,0 -23.54,-28.34 -66.48,-36.41 -98.63,-18.75 -25.2,13.95 -40.77,40.32 -40.77,69.01 0,8.17 1.31,16.35 3.9,24.19 1.65,7.39 4.81,14.59 8.85,22.13l65.19 0 22.34 -51.46c1.96,-4.35 6.53,-7.19 11.22,-6.64 4.81,0.42 8.82,3.82 9.91,8.49l16.45 69.66 21.27 -34.88c2.07,-3.4 5.67,-5.45 9.6,-5.45l40.43 0c6.11,0 11.1,5.01 11.1,11.24 0,6.08 -4.99,11.1 -11.1,11.1l-34.23 0 -32.04 52.77c-2.06,3.37 -5.66,5.33 -9.48,5.33 -0.64,0 -1.2,0 -1.73,-0.11 -4.61,-0.65 -8.07,-4.02 -9.19,-8.4l-15.03 -63.43 -11.87 27.34c-1.86,4.17 -5.77,6.78 -10.26,6.78l-130.25 0c-5.99,0 -10.96,-4.86 -11.11,-10.94l0 -0.29 0 -0.29c0.15,-5.97 5.12,-10.82 11.11,-10.82l32.81 0c-2.41,-5.56 -4.24,-11.03 -5.44,-16.13 -3.05,-9.07 -4.8,-19.53 -4.8,-30.19 0,-36.75 20.07,-70.74 52.43,-88.51 37.5,-20.71 87.09,-14.18 118.03,14.93 30.86,-29.11 80.44,-35.64 117.95,-14.93 32.37,17.77 52.42,51.76 52.42,88.51z"/>
  <g id="_957278752">
   <g style="clip-path:url(#id0)">
    <image x="2448.8" y="8258.61" width="1650.66" height="2016.53" xlink:href="for key_Images\for key_ImgID1.png"/>
   </g>
  </g>
  <rect class="fil2" x="2638.26" y="8454.85" width="1227.67" height="1524.01" rx="116.42" ry="116.42"/>
  <path class="fil3" d="M5300.31 11066.5c0,13.48 -2.22,26.84 -6.49,39.55 -20.11,90.92 -194.03,201.03 -201.47,205.73 -2.33,1.51 -4.8,2.18 -7.58,2.18 -2.62,0 -5.22,-0.67 -7.55,-2.18 -1.94,-1.24 -51.02,-32.11 -100.6,-74.69 -5.93,-5.11 -6.6,-13.93 -1.67,-19.86 5.13,-5.92 14.08,-6.6 20.01,-1.65 36.89,31.71 74.39,57.17 89.95,67.51 52.24,-34.04 167.57,-120.72 181.64,-184.48 3.7,-11.3 5.37,-21.64 5.37,-31.97 0,-36.26 -19.69,-69.75 -51.55,-87.25 -40.64,-22.61 -94.93,-12.12 -124.7,23.57 -5.36,6.46 -16.26,6.46 -21.77,0 -29.77,-35.83 -84.05,-46.03 -124.69,-23.71 -31.86,17.64 -51.55,50.98 -51.55,87.25 0,10.33 1.66,20.67 4.94,30.59 2.08,9.34 6.07,18.44 11.18,27.97l82.42 0 28.24 -65.05c2.47,-5.5 8.25,-9.1 14.18,-8.4 6.08,0.53 11.15,4.83 12.53,10.73l20.8 88.07 26.89 -44.09c2.62,-4.3 7.17,-6.9 12.14,-6.9l51.11 0c7.73,0 14.04,6.34 14.04,14.21 0,7.69 -6.31,14.03 -14.04,14.03l-43.28 0 -40.5 66.71c-2.61,4.27 -7.16,6.74 -11.99,6.74 -0.81,0 -1.52,0 -2.19,-0.14 -5.82,-0.81 -10.2,-5.08 -11.61,-10.62l-19.01 -80.18 -15 34.56c-2.35,5.27 -7.29,8.57 -12.97,8.57l-164.67 0c-7.57,0 -13.85,-6.15 -14.05,-13.83l0 -0.37 0 -0.36c0.2,-7.55 6.48,-13.68 14.05,-13.68l41.48 0c-3.04,-7.02 -5.36,-13.94 -6.88,-20.39 -3.85,-11.47 -6.06,-24.69 -6.06,-38.17 0,-46.46 25.37,-89.44 66.28,-111.9 47.42,-26.18 110.1,-17.93 149.22,18.87 39.01,-36.8 101.7,-45.05 149.12,-18.87 40.92,22.46 66.28,65.44 66.28,111.9z"/>
  <g id="_957275168">
   <path class="fil4" d="M2061.02 6569.1l994.84 0c64.28,0.01 116.41,52.14 116.41,116.42l0.01 1291.06c-0.01,64.27 -52.14,116.4 -116.42,116.4l-994.84 0.02c-64.26,-0.02 -116.39,-52.15 -116.39,-116.43l-0.03 -1291.05c0.03,-64.28 52.16,-116.41 116.44,-116.41z"/>
   <g id="_951844336">
    <path class="fil5" d="M2717.12 7113.65c26,0 47,21 47,47 0,26 -21,47 -47,47 -26,0 -47,-21 -47,-47 0,-26 21,-47 47,-47z"/>
    <path class="fil5" d="M2340.98 7707.12l-129.35 0c-16.26,0 -29.33,-13.19 -29.33,-29.33l0 -129.35c0,-7.81 3.07,-15.24 8.58,-20.75l253.32 -253.32c-7.04,-12.93 -13.58,-26.25 -19.72,-39.83 -19.47,-43.93 -9.73,-96.31 24.59,-130.37l115.39 -114.88c32.79,-32.66 82.09,-43.16 125.38,-26.51 39.45,15.11 96.44,43.03 144.33,90.67 48.03,47.77 76.71,105.4 92.47,145.36 17.03,43.54 6.66,92.85 -26.38,125.89l-116.8 116.29c-33.94,33.68 -84.4,43.67 -128.71,25.23 -21.26,-8.84 -41.75,-19.34 -61.09,-31.12 -13.83,-8.45 -18.19,-26.64 -9.73,-40.47 8.45,-13.83 26.64,-18.19 40.47,-9.73 16.78,10.25 34.58,19.34 52.89,27.02 22.28,9.22 47.64,4.35 64.67,-12.55l116.8 -116.29c16.52,-16.39 21.64,-41.11 13.19,-62.75 -13.58,-34.71 -38.42,-84.65 -79.15,-125.12 -40.47,-40.34 -89.65,-64.29 -123.84,-77.35 -21.77,-8.32 -46.36,-3.07 -62.88,13.32l-115.39 114.88c-17.03,16.91 -22.03,43.03 -12.29,64.8 8.32,18.57 17.67,36.5 27.79,53.28 7.04,11.53 5.25,26.51 -4.35,35.99l-260.62 260.62 0 87.73 70.57 0 0 -52.89c0,-16.26 13.19,-29.33 29.33,-29.33l52.89 0 0 -52.89c0,-16.26 13.19,-29.33 29.33,-29.33l82.35 0c16.26,0 29.33,13.19 29.33,29.33 0,16.26 -13.19,29.33 -29.33,29.33l-52.89 0 0 52.89c0,16.26 -13.19,29.33 -29.33,29.33l-52.89 0 0 52.89c0,16.26 -13.19,29.33 -29.33,29.33l-0.27 -0.02z"/>
   </g>
  </g>
  <circle class="fil6" cx="1989.11" cy="11200.8" r="566.2"/>
  <g id="_1202475568">
   <path class="fil7" d="M2126.14 11013.08c22.43,0 40.61,18.18 40.61,40.6 0,22.43 -18.18,40.61 -40.61,40.61 -22.42,0 -40.6,-18.18 -40.6,-40.61 0,-22.42 18.18,-40.6 40.6,-40.6z"/>
   <path class="fil7" d="M1801.3 11525.56l-111.66 0c-14.02,0 -25.38,-11.36 -25.38,-25.38l0 -111.66c0,-6.73 2.67,-13.19 7.43,-17.95l218.73 -218.73c-6.08,-11.12 -11.77,-22.62 -17,-34.39 -16.86,-37.93 -8.35,-83.18 21.19,-112.58l99.66 -99.19c28.36,-28.23 70.85,-37.23 108.23,-22.94 34.06,13.01 83.32,37.15 124.6,78.24 41.43,41.24 66.28,91.03 79.84,125.54 14.75,37.55 5.79,80.22 -22.82,108.69l-100.86 100.39c-29.27,29.13 -72.9,37.68 -111.15,21.77 -18.3,-7.61 -36.05,-16.66 -52.74,-26.91 -11.94,-7.33 -15.68,-22.96 -8.35,-34.9 7.33,-11.95 22.96,-15.69 34.9,-8.36 14.44,8.87 29.81,16.71 45.68,23.31 19.25,8 41.17,3.73 55.86,-10.89l100.86 -100.39c14.26,-14.19 18.72,-35.45 11.37,-54.16 -11.77,-29.99 -33.2,-73.08 -68.39,-108.11 -34.98,-34.82 -77.45,-55.55 -106.92,-66.81 -18.76,-7.17 -40.07,-2.66 -54.3,11.5l-99.66 99.19c-14.72,14.66 -18.99,37.16 -10.62,55.99 7.14,16.05 15.22,31.54 24.02,46.04 6.06,10 4.51,22.84 -3.76,31.11l-225.05 225.05 0 75.77 60.91 0 0 -45.68c0,-14.01 11.36,-25.38 25.38,-25.38l45.68 0 0 -45.68c0,-14.01 11.36,-25.38 25.38,-25.38l71.06 0c14.02,0 25.38,11.37 25.38,25.38 0,14.02 -11.36,25.38 -25.38,25.38l-45.68 0 0 45.68c0,14.02 -11.36,25.38 -25.38,25.38l-45.68 0 0 45.68c0,14.02 -11.36,25.38 -25.38,25.38z"/>
  </g>
 </g>
</svg>
