<?xml version="1.0" encoding="UTF-8"?>
<!DOCTYPE svg PUBLIC "-//W3C//DTD SVG 1.1//EN" "http://www.w3.org/Graphics/SVG/1.1/DTD/svg11.dtd">
<!-- Creator: CorelDRAW 2018 (64-Bit) -->
<svg xmlns="http://www.w3.org/2000/svg" xml:space="preserve" width="2.9367mm" height="2.7641mm" version="1.1" style="shape-rendering:geometricPrecision; text-rendering:geometricPrecision; image-rendering:optimizeQuality; fill-rule:evenodd; clip-rule:evenodd"
viewBox="0 0 5.77 5.44"
 xmlns:xlink="http://www.w3.org/1999/xlink">
 <defs>
  <style type="text/css">
   <![CDATA[
    .fil0 {fill:#9EB0C5}
   ]]>
  </style>
 </defs>
 <g id="Слой_x0020_1">
  <metadata id="CorelCorpID_0Corel-Layer"/>
  <g id="_6163712832">
   <g>
    <g>
     <path class="fil0" d="M3.05 2.93c0.18,-0.08 0.23,-0.33 0.13,-0.55 -0.1,-0.22 -0.33,-0.33 -0.51,-0.25 -0.18,0.08 -0.23,0.33 -0.13,0.55 0.1,0.22 0.33,0.33 0.51,0.25z"/>
     <path class="fil0" d="M3.57 1.62c0.17,1.06 -0.58,1.85 -0.58,1.85 0,0 -0.62,-1.05 -1.66,-1.36 2.03,1.48 0.87,3.33 0.87,3.33l0.59 0c0,0 1.36,-2.35 0.78,-3.81z"/>
     <path class="fil0" d="M2.43 1.74c-0.01,-0.02 -0.02,-0.03 -0.03,-0.05 -0.05,-0.09 -0.08,-0.18 -0.08,-0.18 0,0 0.06,0.06 0.12,0.16 0.01,0.02 0.02,0.04 0.03,0.06 0.01,-0.04 0.02,-0.13 -0.02,-0.21 -0.06,-0.1 -0.2,-0.13 -0.2,-0.13 0,0 -0.04,0.13 0.02,0.24 0.04,0.07 0.13,0.11 0.17,0.13z"/>
     <path class="fil0" d="M3.77 2.52c0.03,0.03 0.11,0.08 0.19,0.08 0.12,0 0.21,-0.1 0.21,-0.1 0,0 -0.1,-0.1 -0.21,-0.1 -0.09,0 -0.16,0.05 -0.19,0.08 0.02,-0 0.04,-0 0.06,-0 0.11,0 0.19,0.02 0.19,0.02 0,0 -0.09,0.02 -0.19,0.02 -0.02,0 -0.04,-0 -0.06,-0z"/>
     <path class="fil0" d="M3.34 1.67c0.05,-0.09 0.12,-0.16 0.12,-0.16 0,0 -0.02,0.09 -0.08,0.18 -0.01,0.02 -0.02,0.04 -0.03,0.05 0.04,-0.01 0.13,-0.05 0.17,-0.13 0.06,-0.1 0.02,-0.24 0.02,-0.24 0,0 -0.14,0.03 -0.2,0.13 -0.04,0.07 -0.03,0.16 -0.02,0.21 0.01,-0.02 0.02,-0.04 0.03,-0.06z"/>
     <path class="fil0" d="M2.84 1.11c0,-0.24 0.05,-0.43 0.05,-0.43 0,0 0.05,0.19 0.05,0.43 0,0.05 -0,0.1 -0.01,0.14 0.07,-0.08 0.19,-0.24 0.19,-0.43 0,-0.26 -0.23,-0.48 -0.23,-0.48 0,0 -0.23,0.21 -0.23,0.48 0,0.19 0.12,0.35 0.18,0.43 -0,-0.04 -0.01,-0.09 -0.01,-0.14z"/>
     <path class="fil0" d="M1.32 1.86c0.17,0.1 0.37,0.07 0.47,0.05 -0.04,-0.02 -0.08,-0.04 -0.13,-0.07 -0.21,-0.12 -0.35,-0.26 -0.35,-0.26 0,0 0.19,0.06 0.4,0.17 0.04,0.03 0.08,0.05 0.12,0.08 -0.03,-0.09 -0.11,-0.28 -0.28,-0.38 -0.23,-0.13 -0.53,-0.04 -0.53,-0.04 0,0 0.07,0.3 0.3,0.43z"/>
     <path class="fil0" d="M4.45 3.14c-0.17,-0.1 -0.37,-0.07 -0.46,-0.06 0.04,0.02 0.08,0.04 0.13,0.07 0.21,0.12 0.35,0.26 0.35,0.26 0,0 -0.19,-0.05 -0.4,-0.17 -0.04,-0.03 -0.08,-0.05 -0.12,-0.08 0.03,0.09 0.11,0.28 0.28,0.38 0.23,0.13 0.53,0.04 0.53,0.04 0,0 -0.07,-0.3 -0.3,-0.43z"/>
     <path class="fil0" d="M1.83 3.16c-0.04,0.03 -0.08,0.05 -0.12,0.08 -0.21,0.12 -0.4,0.17 -0.4,0.17 0,0 0.14,-0.14 0.35,-0.26 0.04,-0.03 0.09,-0.05 0.13,-0.07 -0.1,-0.02 -0.3,-0.04 -0.47,0.06 -0.23,0.13 -0.3,0.43 -0.3,0.43 0,0 0.3,0.09 0.53,-0.04 0.17,-0.1 0.25,-0.28 0.28,-0.38z"/>
     <path class="fil0" d="M3.95 1.84c0.04,-0.03 0.08,-0.05 0.12,-0.08 0.21,-0.12 0.4,-0.17 0.4,-0.17 0,0 -0.14,0.14 -0.35,0.26 -0.04,0.03 -0.09,0.05 -0.13,0.07 0.1,0.02 0.3,0.04 0.46,-0.05 0.23,-0.13 0.3,-0.43 0.3,-0.43 0,0 -0.3,-0.09 -0.53,0.04 -0.17,0.1 -0.25,0.28 -0.28,0.38z"/>
     <path class="fil0" d="M2 1.08c-0.03,-0.05 -0.07,-0.1 -0.1,-0.16 -0.16,-0.28 -0.23,-0.53 -0.23,-0.53 0,0 0.18,0.19 0.34,0.47 0.03,0.06 0.06,0.12 0.09,0.17 0.03,-0.13 0.05,-0.4 -0.07,-0.62 -0.18,-0.3 -0.58,-0.4 -0.58,-0.4 0,0 -0.12,0.4 0.06,0.7 0.13,0.22 0.38,0.33 0.5,0.38z"/>
     <path class="fil0" d="M3.77 3.92c0.03,0.05 0.07,0.1 0.1,0.16 0.16,0.28 0.23,0.53 0.23,0.53 0,0 -0.18,-0.19 -0.34,-0.47 -0.03,-0.06 -0.06,-0.12 -0.09,-0.17 -0.02,0.13 -0.05,0.4 0.07,0.62 0.18,0.3 0.58,0.4 0.58,0.4 0,0 0.12,-0.4 -0.05,-0.7 -0.13,-0.22 -0.38,-0.33 -0.5,-0.37z"/>
     <path class="fil0" d="M1.02 2.57c-0.32,0 -0.58,-0.06 -0.58,-0.06 0,0 0.26,-0.06 0.58,-0.06 0.07,0 0.13,0 0.19,0.01 -0.1,-0.09 -0.32,-0.25 -0.58,-0.25 -0.35,0 -0.64,0.3 -0.64,0.3 0,0 0.29,0.3 0.64,0.3 0.26,0 0.48,-0.16 0.58,-0.25 -0.06,0 -0.12,0.01 -0.19,0.01z"/>
     <path class="fil0" d="M5.14 2.2c-0.26,0 -0.48,0.16 -0.58,0.25 0.06,-0 0.12,-0.01 0.19,-0.01 0.32,0 0.58,0.06 0.58,0.06 0,0 -0.26,0.06 -0.58,0.06 -0.07,0 -0.13,-0 -0.19,-0.01 0.1,0.09 0.32,0.25 0.58,0.25 0.35,0 0.64,-0.3 0.64,-0.3 0,0 -0.29,-0.3 -0.64,-0.3z"/>
     <path class="fil0" d="M2.01 4.15c-0.16,0.28 -0.34,0.47 -0.34,0.47 0,0 0.07,-0.26 0.23,-0.53 0.03,-0.06 0.07,-0.11 0.1,-0.16 -0.13,0.04 -0.38,0.15 -0.5,0.38 -0.18,0.3 -0.06,0.7 -0.06,0.7 0,0 0.41,-0.1 0.58,-0.4 0.13,-0.22 0.1,-0.49 0.07,-0.62 -0.03,0.05 -0.06,0.11 -0.09,0.17z"/>
     <path class="fil0" d="M3.76 0.85c0.16,-0.28 0.34,-0.47 0.34,-0.47 0,0 -0.07,0.26 -0.23,0.53 -0.03,0.06 -0.07,0.11 -0.1,0.16 0.13,-0.04 0.37,-0.15 0.5,-0.38 0.18,-0.3 0.06,-0.7 0.06,-0.7 0,0 -0.41,0.1 -0.58,0.4 -0.13,0.22 -0.1,0.49 -0.07,0.62 0.03,-0.05 0.06,-0.11 0.09,-0.17z"/>
    </g>
   </g>
   <g>
   </g>
   <g>
   </g>
   <g>
   </g>
   <g>
   </g>
   <g>
   </g>
   <g>
   </g>
   <g>
   </g>
   <g>
   </g>
   <g>
   </g>
   <g>
   </g>
   <g>
   </g>
   <g>
   </g>
   <g>
   </g>
   <g>
   </g>
   <g>
   </g>
  </g>
 </g>
</svg>
