<?xml version="1.0" encoding="UTF-8"?>
<!DOCTYPE svg PUBLIC "-//W3C//DTD SVG 1.1//EN" "http://www.w3.org/Graphics/SVG/1.1/DTD/svg11.dtd">
<!-- Creator: CorelDRAW 2018 (64-Bit) -->
<svg xmlns="http://www.w3.org/2000/svg" xml:space="preserve" width="3.7452mm" height="2.9632mm" version="1.1" style="shape-rendering:geometricPrecision; text-rendering:geometricPrecision; image-rendering:optimizeQuality; fill-rule:evenodd; clip-rule:evenodd"
viewBox="0 0 11.99 9.48"
 xmlns:xlink="http://www.w3.org/1999/xlink">
 <defs>
  <style type="text/css">
   <![CDATA[
    .fil0 {fill:#9EB0C5;fill-rule:nonzero}
   ]]>
  </style>
 </defs>
 <g id="Слой_x0020_1">
  <metadata id="CorelCorpID_0Corel-Layer"/>
  <path class="fil0" d="M11.99 3.22c0,0.34 -0.06,0.68 -0.16,1 -0.51,2.3 -4.91,5.09 -5.1,5.21 -0.06,0.04 -0.12,0.06 -0.19,0.06 -0.07,0 -0.13,-0.02 -0.19,-0.06 -0.05,-0.03 -1.29,-0.81 -2.55,-1.89 -0.15,-0.13 -0.17,-0.35 -0.04,-0.5 0.13,-0.15 0.36,-0.17 0.51,-0.04 0.93,0.8 1.88,1.45 2.28,1.71 1.32,-0.86 4.24,-3.06 4.6,-4.67 0.09,-0.29 0.14,-0.55 0.14,-0.81 0,-0.92 -0.5,-1.77 -1.31,-2.21 -1.03,-0.57 -2.4,-0.31 -3.16,0.6 -0.14,0.16 -0.41,0.16 -0.55,0 -0.75,-0.91 -2.13,-1.17 -3.16,-0.6 -0.81,0.45 -1.3,1.29 -1.3,2.21 0,0.26 0.04,0.52 0.12,0.77 0.05,0.24 0.15,0.47 0.28,0.71l2.09 0 0.72 -1.65c0.06,-0.14 0.21,-0.23 0.36,-0.21 0.15,0.01 0.28,0.12 0.32,0.27l0.53 2.23 0.68 -1.12c0.07,-0.11 0.18,-0.17 0.31,-0.17l1.29 0c0.2,0 0.36,0.16 0.36,0.36 0,0.19 -0.16,0.36 -0.36,0.36l-1.1 0 -1.03 1.69c-0.07,0.11 -0.18,0.17 -0.3,0.17 -0.02,0 -0.04,0 -0.06,-0 -0.15,-0.02 -0.26,-0.13 -0.29,-0.27l-0.48 -2.03 -0.38 0.88c-0.06,0.13 -0.18,0.22 -0.33,0.22l-4.17 0c-0.19,0 -0.35,-0.16 -0.36,-0.35l0 -0.01 0 -0.01c0,-0.19 0.16,-0.35 0.36,-0.35l1.05 0c-0.08,-0.18 -0.14,-0.35 -0.17,-0.52 -0.1,-0.29 -0.15,-0.63 -0.15,-0.97 0,-1.18 0.64,-2.26 1.68,-2.83 1.2,-0.66 2.79,-0.45 3.78,0.48 0.99,-0.93 2.57,-1.14 3.78,-0.48 1.04,0.57 1.68,1.66 1.68,2.83z"/>
 </g>
</svg>
