<?xml version="1.0" encoding="UTF-8"?>
<!DOCTYPE svg PUBLIC "-//W3C//DTD SVG 1.1//EN" "http://www.w3.org/Graphics/SVG/1.1/DTD/svg11.dtd">
<!-- Creator: CorelDRAW 2018 (64-Bit) -->
<svg xmlns="http://www.w3.org/2000/svg" xml:space="preserve" width="11.324mm" height="11.324mm" version="1.1" style="shape-rendering:geometricPrecision; text-rendering:geometricPrecision; image-rendering:optimizeQuality; fill-rule:evenodd; clip-rule:evenodd"
viewBox="0 0 92.39 92.39"
 xmlns:xlink="http://www.w3.org/1999/xlink">
 <defs>
  <style type="text/css">
   <![CDATA[
    .fil0 {fill:url(#id0)}
   ]]>
  </style>
  <linearGradient id="id0" gradientUnits="userSpaceOnUse" x1="45.36" y1="-2.52" x2="46.2" y2="92.39">
   <stop offset="0" style="stop-opacity:1; stop-color:#074F93"/>
   <stop offset="0.6" style="stop-opacity:1; stop-color:#3771AC"/>
   <stop offset="1" style="stop-opacity:1; stop-color:#6793C6"/>
  </linearGradient>
 </defs>
 <g id="Слой_x0020_1">
  <metadata id="CorelCorpID_0Corel-Layer"/>
  <path class="fil0" d="M46.2 0c25.51,0 46.2,20.68 46.2,46.2 0,25.51 -20.68,46.2 -46.2,46.2 -25.51,0 -46.2,-20.68 -46.2,-46.2 0,-25.51 20.68,-46.2 46.2,-46.2zm23.81 31.34l-22.1 -6.9c-0.25,-0.08 -0.52,-0.12 -0.78,-0.13l-0.14 0c-0.26,0 -0.53,0.05 -0.78,0.13l-22.1 6.9c-1.19,0.37 -2.01,1.48 -2.01,2.72 0,30.56 15.44,37.86 23.73,41.78 0.38,0.18 0.8,0.27 1.22,0.27 0.42,0 0.84,-0.09 1.23,-0.27 8.29,-3.92 23.73,-11.22 23.73,-41.78 0,-1.25 -0.81,-2.35 -2.01,-2.72zm-22.95 38.76c-7.87,-3.78 -18.62,-10.05 -19.21,-33.94l19.21 -6 19.21 6c-0.58,23.89 -11.34,30.16 -19.21,33.94zm-15.97 -31.56c0,7.06 1.83,12.61 4.32,16.89l19.44 -19.44 -7.79 -2.44 -15.97 4.99zm15.97 28.32c5.46,-2.45 15.74,-10.67 15.97,-27.74l-22.69 22.69c2.62,2.61 5.18,4.23 6.73,5.05z"/>
 </g>
</svg>
