<?xml version="1.0" encoding="UTF-8"?>
<!DOCTYPE svg PUBLIC "-//W3C//DTD SVG 1.1//EN" "http://www.w3.org/Graphics/SVG/1.1/DTD/svg11.dtd">
<!-- Creator: CorelDRAW 2018 (64-Bit) -->
<svg xmlns="http://www.w3.org/2000/svg" xml:space="preserve" width="11.324mm" height="11.324mm" version="1.1" style="shape-rendering:geometricPrecision; text-rendering:geometricPrecision; image-rendering:optimizeQuality; fill-rule:evenodd; clip-rule:evenodd"
viewBox="0 0 77.18 77.18"
 xmlns:xlink="http://www.w3.org/1999/xlink">
 <defs>
  <style type="text/css">
   <![CDATA[
    .fil0 {fill:url(#id0)}
   ]]>
  </style>
  <linearGradient id="id0" gradientUnits="userSpaceOnUse" x1="37.89" y1="-2.11" x2="38.59" y2="77.18">
   <stop offset="0" style="stop-opacity:1; stop-color:#074F93"/>
   <stop offset="0.6" style="stop-opacity:1; stop-color:#3771AC"/>
   <stop offset="1" style="stop-opacity:1; stop-color:#6793C6"/>
  </linearGradient>
 </defs>
 <g id="Слой_x0020_1">
  <metadata id="CorelCorpID_0Corel-Layer"/>
  <path class="fil0" d="M38.59 0c21.31,0 38.59,17.28 38.59,38.59 0,21.31 -17.28,38.59 -38.59,38.59 -21.31,0 -38.59,-17.28 -38.59,-38.59 0,-21.31 17.28,-38.59 38.59,-38.59zm9.88 25.59c1.56,0 2.82,1.26 2.82,2.82 0,1.56 -1.26,2.83 -2.82,2.83 -1.56,0 -2.82,-1.26 -2.82,-2.83 0,-1.56 1.26,-2.82 2.82,-2.82zm-22.6 35.66l-7.77 0c-0.98,0 -1.76,-0.79 -1.76,-1.76l0 -7.77c0,-0.47 0.18,-0.92 0.52,-1.25l15.22 -15.22c-0.42,-0.78 -0.82,-1.58 -1.19,-2.39 -1.17,-2.64 -0.58,-5.79 1.48,-7.83l6.93 -6.9c1.97,-1.96 4.93,-2.59 7.53,-1.59 2.37,0.91 5.79,2.59 8.67,5.45 2.89,2.87 4.61,6.33 5.56,8.73 1.02,2.62 0.4,5.58 -1.58,7.56l-7.02 6.99c-2.04,2.02 -5.07,2.62 -7.73,1.52 -1.28,-0.53 -2.51,-1.16 -3.67,-1.87 -0.83,-0.51 -1.09,-1.6 -0.58,-2.43 0.51,-0.83 1.6,-1.09 2.43,-0.58 1.01,0.62 2.08,1.16 3.18,1.62 1.34,0.55 2.86,0.26 3.89,-0.75l7.02 -6.99c0.99,-0.99 1.3,-2.47 0.79,-3.77 -0.82,-2.09 -2.31,-5.09 -4.76,-7.52 -2.43,-2.42 -5.39,-3.86 -7.44,-4.65 -1.31,-0.5 -2.79,-0.18 -3.78,0.8l-6.93 6.9c-1.02,1.02 -1.32,2.59 -0.74,3.89 0.5,1.12 1.06,2.19 1.67,3.2 0.42,0.69 0.32,1.59 -0.26,2.16l-15.66 15.66 0 5.27 4.24 0 0 -3.18c0,-0.98 0.79,-1.76 1.76,-1.76l3.18 0 0 -3.18c0,-0.98 0.79,-1.76 1.76,-1.76l4.95 0c0.98,0 1.76,0.79 1.76,1.76 0,0.98 -0.79,1.76 -1.76,1.76l-3.18 0 0 3.18c0,0.98 -0.79,1.76 -1.76,1.76l-3.18 0 0 3.18c0,0.98 -0.79,1.76 -1.76,1.76l-0.02 -0z"/>
 </g>
</svg>
