<?xml version="1.0" encoding="UTF-8"?>
<!DOCTYPE svg PUBLIC "-//W3C//DTD SVG 1.1//EN" "http://www.w3.org/Graphics/SVG/1.1/DTD/svg11.dtd">
<!-- Creator: CorelDRAW 2018 (64-Bit) -->
<svg xmlns="http://www.w3.org/2000/svg" xml:space="preserve" width="11.324mm" height="11.324mm" version="1.1" style="shape-rendering:geometricPrecision; text-rendering:geometricPrecision; image-rendering:optimizeQuality; fill-rule:evenodd; clip-rule:evenodd"
viewBox="0 0 83.27 83.27"
 xmlns:xlink="http://www.w3.org/1999/xlink">
 <defs>
  <style type="text/css">
   <![CDATA[
    .fil0 {fill:url(#id0)}
   ]]>
  </style>
  <linearGradient id="id0" gradientUnits="userSpaceOnUse" x1="40.88" y1="-2.27" x2="41.64" y2="83.27">
   <stop offset="0" style="stop-opacity:1; stop-color:#E9552A"/>
   <stop offset="0.6" style="stop-opacity:1; stop-color:#F0834F"/>
   <stop offset="1" style="stop-opacity:1; stop-color:#F7B175"/>
  </linearGradient>
 </defs>
 <g id="Слой_x0020_1">
  <metadata id="CorelCorpID_0Corel-Layer"/>
  <path class="fil0" d="M41.64 0c23,0 41.64,18.64 41.64,41.64 0,23 -18.64,41.64 -41.64,41.64 -23,0 -41.64,-18.64 -41.64,-41.64 0,-23 18.64,-41.64 41.64,-41.64zm23.66 23.34c-0.01,-0.22 -0.07,-0.41 -0.17,-0.61 -0.03,-0.06 -0.01,-0.14 -0.06,-0.19 -0.02,-0.03 -0.05,-0.02 -0.08,-0.05 -0.02,-0.03 -0.02,-0.07 -0.05,-0.09 -0.2,-0.2 -0.45,-0.33 -0.72,-0.37 -0.03,0 -0.04,0.01 -0.07,0.01 -0.24,-0.03 -0.49,-0.02 -0.71,0.08l-52.27 22.91c-0.53,0.24 -0.85,0.78 -0.8,1.37 0.05,0.58 0.46,1.06 1.03,1.21l11.82 2.86 5.74 12.27c0.04,0.08 0.12,0.12 0.17,0.19 0.02,0.05 0.01,0.1 0.05,0.13 0.04,0.07 0.13,0.1 0.2,0.16 0.06,0.04 0.1,0.09 0.17,0.12 0.2,0.11 0.42,0.19 0.64,0.19 0.06,0 0.1,-0.01 0.16,-0.01 0.26,-0.03 0.48,-0.15 0.67,-0.3 0.02,-0.02 0.06,-0.01 0.09,-0.03l9.05 -7.99 8.97 2.94c0.67,0.21 1.4,-0.11 1.68,-0.75l14.43 -33.47c0.02,-0.08 0,-0.16 0.02,-0.26 0.03,-0.1 0.04,-0.19 0.04,-0.3zm-33.61 26.9c-0.02,0.02 -0.01,0.05 -0.04,0.07 -0.18,0.19 -0.33,0.4 -0.39,0.66l-1.53 6.97 -3.81 -8.15 23.53 -15.33 -17.76 15.78zm17.71 -18.99l-25.46 16.59 -7.97 -1.93 33.43 -14.65zm-16.97 27.14l1.16 -5.36 3.58 1.17 -4.74 4.19zm16.38 -3.24l-13.55 -4.44 25.06 -22.26 -11.51 26.7z"/>
 </g>
</svg>
