<?xml version="1.0" encoding="UTF-8"?>
<!DOCTYPE svg PUBLIC "-//W3C//DTD SVG 1.1//EN" "http://www.w3.org/Graphics/SVG/1.1/DTD/svg11.dtd">
<!-- Creator: CorelDRAW 2018 (64-Bit) -->
<svg xmlns="http://www.w3.org/2000/svg" xml:space="preserve" width="11.3254mm" height="11.3254mm" version="1.1" style="shape-rendering:geometricPrecision; text-rendering:geometricPrecision; image-rendering:optimizeQuality; fill-rule:evenodd; clip-rule:evenodd"
viewBox="0 0 43.63 43.63"
 xmlns:xlink="http://www.w3.org/1999/xlink">
 <defs>
  <style type="text/css">
   <![CDATA[
    .fil0 {fill:url(#id0)}
   ]]>
  </style>
  <linearGradient id="id0" gradientUnits="userSpaceOnUse" x1="20.96" y1="-1.05" x2="21.48" y2="43.48">
   <stop offset="0" style="stop-opacity:1; stop-color:#074F93"/>
   <stop offset="1" style="stop-opacity:1; stop-color:#6793C6"/>
  </linearGradient>
 </defs>
 <g id="Слой_x0020_1">
  <metadata id="CorelCorpID_0Corel-Layer"/>
  <path class="fil0" d="M21.82 0c12.05,0 21.82,9.77 21.82,21.82 0,12.05 -9.77,21.82 -21.82,21.82 -12.05,0 -21.82,-9.77 -21.82,-21.82 0,-12.05 9.77,-21.82 21.82,-21.82zm12.4 12.23c-0.01,-0.12 -0.04,-0.21 -0.09,-0.32 -0.02,-0.03 -0.01,-0.07 -0.03,-0.1 -0.01,-0.02 -0.03,-0.01 -0.04,-0.03 -0.01,-0.02 -0.01,-0.04 -0.03,-0.05 -0.1,-0.1 -0.24,-0.17 -0.38,-0.19 -0.02,0 -0.02,0.01 -0.04,0.01 -0.13,-0.02 -0.26,-0.01 -0.37,0.04l-27.39 12c-0.28,0.13 -0.45,0.41 -0.42,0.72 0.03,0.3 0.24,0.56 0.54,0.63l6.19 1.5 3.01 6.43c0.02,0.04 0.06,0.06 0.09,0.1 0.01,0.03 0.01,0.05 0.03,0.07 0.02,0.04 0.07,0.05 0.1,0.08 0.03,0.02 0.05,0.05 0.09,0.06 0.1,0.06 0.22,0.1 0.34,0.1 0.03,0 0.05,-0.01 0.08,-0.01 0.14,-0.02 0.25,-0.08 0.35,-0.16 0.01,-0.01 0.03,-0.01 0.05,-0.02l4.74 -4.19 4.7 1.54c0.35,0.11 0.73,-0.06 0.88,-0.39l7.56 -17.54c0.01,-0.04 0,-0.08 0.01,-0.14 0.02,-0.05 0.02,-0.1 0.02,-0.16l0 -0.01zm-17.61 14.09c-0.01,0.01 -0.01,0.03 -0.02,0.04 -0.09,0.1 -0.17,0.21 -0.2,0.35l-0.8 3.65 -2 -4.27 12.33 -8.03 -9.3 8.27 -0 -0zm9.28 -9.95l-13.34 8.69 -4.18 -1.01 17.51 -7.68 0 -0.01zm-8.89 14.22l0.61 -2.81 1.88 0.61 -2.48 2.2 0 0zm8.58 -1.7l-7.1 -2.33 13.13 -11.66 -6.03 13.99 0 0z"/>
 </g>
</svg>
