<?xml version="1.0" encoding="UTF-8"?>
<!DOCTYPE svg PUBLIC "-//W3C//DTD SVG 1.1//EN" "http://www.w3.org/Graphics/SVG/1.1/DTD/svg11.dtd">
<!-- Creator: CorelDRAW 2018 (64-Bit) -->
<svg xmlns="http://www.w3.org/2000/svg" xml:space="preserve" width="11.324mm" height="11.324mm" version="1.1" style="shape-rendering:geometricPrecision; text-rendering:geometricPrecision; image-rendering:optimizeQuality; fill-rule:evenodd; clip-rule:evenodd"
viewBox="0 0 70.24 70.24"
 xmlns:xlink="http://www.w3.org/1999/xlink">
 <defs>
  <style type="text/css">
   <![CDATA[
    .fil0 {fill:url(#id0)}
   ]]>
  </style>
  <linearGradient id="id0" gradientUnits="userSpaceOnUse" x1="34.48" y1="-1.92" x2="35.12" y2="70.24">
   <stop offset="0" style="stop-opacity:1; stop-color:#074F93"/>
   <stop offset="0.6" style="stop-opacity:1; stop-color:#3771AC"/>
   <stop offset="1" style="stop-opacity:1; stop-color:#6793C6"/>
  </linearGradient>
 </defs>
 <g id="Слой_x0020_1">
  <metadata id="CorelCorpID_0Corel-Layer"/>
  <path class="fil0" d="M35.12 0c19.4,0 35.12,15.72 35.12,35.12 0,19.4 -15.72,35.12 -35.12,35.12 -19.4,0 -35.12,-15.72 -35.12,-35.12 0,-19.4 15.72,-35.12 35.12,-35.12zm11.9 22.89l-5.95 0 0 -1.98c0,-1.1 -0.89,-1.99 -1.99,-1.99l-7.93 0c-1.1,0 -1.99,0.89 -1.99,1.99l0 1.98 -5.95 0c-2.19,0 -3.97,1.78 -3.97,3.97l0 17.86c0,2.19 1.78,3.97 3.97,3.97l23.81 0c2.2,0 3.97,-1.78 3.97,-3.97l0 -17.86c0,-2.19 -1.78,-3.97 -3.97,-3.97zm-15.87 -0.99c0,-0.55 0.44,-0.99 0.99,-0.99l5.95 0c0.55,0 0.99,0.44 0.99,0.99l0 0.99 -7.93 0 0 -0.99zm17.85 22.82c0,1.09 -0.89,1.98 -1.99,1.98l-23.81 0c-1.1,0 -1.98,-0.89 -1.98,-1.98l0 -10.91 10.06 0c-0.08,0.32 -0.14,0.65 -0.14,0.99 0,2.19 1.77,3.97 3.97,3.97 2.19,0 3.97,-1.78 3.97,-3.97 0,-0.35 -0.06,-0.67 -0.14,-0.99l10.06 0 0 10.91zm-15.87 -9.92c0,-0.36 0.11,-0.7 0.28,-0.99l3.42 0c0.17,0.29 0.28,0.63 0.28,0.99 0,1.09 -0.89,1.98 -1.98,1.98 -1.1,0 -1.99,-0.89 -1.99,-1.98zm15.87 -2.98l-27.78 0 0 -4.96c0,-1.09 0.89,-1.98 1.98,-1.98l23.81 0c1.1,0 1.99,0.89 1.99,1.98l0 4.96z"/>
 </g>
</svg>
