<?xml version="1.0" encoding="UTF-8"?>
<!DOCTYPE svg PUBLIC "-//W3C//DTD SVG 1.1//EN" "http://www.w3.org/Graphics/SVG/1.1/DTD/svg11.dtd">
<!-- Creator: CorelDRAW 2018 (64-Bit) -->
<svg xmlns="http://www.w3.org/2000/svg" xml:space="preserve" width="2.9806mm" height="2.9634mm" version="1.1" style="shape-rendering:geometricPrecision; text-rendering:geometricPrecision; image-rendering:optimizeQuality; fill-rule:evenodd; clip-rule:evenodd"
viewBox="0 0 7.97 7.93"
 xmlns:xlink="http://www.w3.org/1999/xlink">
 <defs>
  <style type="text/css">
   <![CDATA[
    .fil0 {fill:#9EB0C5}
   ]]>
  </style>
 </defs>
 <g id="Слой_x0020_1">
  <metadata id="CorelCorpID_0Corel-Layer"/>
  <g id="_1500325856">
   <path class="fil0" d="M3.86 2.13l0.22 0.01c0.01,0.22 -0.05,0.56 0.06,0.7 0.08,0.11 0.32,0.34 0.45,0.4l0.84 -0.87c0.21,-0.19 0.13,-0.39 0.13,-0.74 0,-0.31 0,-0.61 0,-0.92 -0.38,0.25 -1.16,1.24 -1.47,1.39l-0 -0.94c0.3,-0.25 0.33,-0.34 0.48,-0.46l-0.49 -0.01 0.01 0.46 -0.23 0 0 0.97z"/>
   <path class="fil0" d="M5.16 3.84l0.57 0c0.13,0.07 0.09,0.01 0.09,0.22l0.07 -0 0.86 0 -0.01 -0.21 -0.91 0.01c0.27,-0.32 1.31,-1.24 1.41,-1.47 -2.01,-0.03 -1.31,-0.18 -2.54,1.01l0.46 0.44z"/>
   <path class="fil0" d="M3.86 2.13c-0.1,-0.13 -1.35,-1.37 -1.46,-1.43 -0.01,0.28 -0,0.57 -0,0.85 0,0.39 -0.06,0.64 0.09,0.8 0.21,0.22 0.69,0.72 0.91,0.88 0.11,-0.06 0.32,-0.27 0.4,-0.38 0.11,-0.14 0.07,-0.51 0.05,-0.72z"/>
   <path class="fil0" d="M3.82 5.83c-0.02,-0.08 -0.03,-0.07 0.05,-0.04 -0.07,-0.63 0.23,-0.53 -0.47,-1.1 -0.18,0.11 -0.75,0.69 -0.9,0.87 -0.17,0.21 -0.11,0.44 -0.11,0.78 0,0.28 -0.02,0.61 0.01,0.88l1.42 -1.39z"/>
   <path class="fil0" d="M4.1 5.11c-0,0.23 -0.05,0.56 0.05,0.73 0.16,0.12 1.16,1.26 1.41,1.37l0 -1.3c0,-0.24 0.01,-0.23 -0.12,-0.36 -0.28,-0.27 -0.63,-0.65 -0.91,-0.87l-0.44 0.43z"/>
   <path class="fil0" d="M2.82 4.09c-0.21,-0.03 -0.5,-0.04 -0.7,0.01 -0.21,0.18 -1.3,1.25 -1.4,1.42l1.29 0c0.24,0 0.24,0.03 0.37,-0.1 0.18,-0.17 0.79,-0.76 0.87,-0.91l-0.43 -0.42z"/>
   <path class="fil0" d="M5.88 4.12c-0.11,-0.06 0.03,-0.03 -0.17,-0.05 -0.05,-0 -0.14,0 -0.2,0 -0.12,0 -0.24,-0 -0.37,0l-0.43 0.42c0.05,0.12 0.76,0.77 0.88,0.9 0.18,0.19 0.35,0.13 0.77,0.13 0.27,-0 0.62,0.02 0.88,-0.01l-1.37 -1.4z"/>
   <path class="fil0" d="M2.11 3.84l0.7 -0.01c0.14,-0.06 0.38,-0.32 0.44,-0.46 -0.08,-0.07 -0.13,-0.13 -0.21,-0.2 -0.51,-0.44 -0.66,-0.77 -0.96,-0.78 -0.15,-0 -0.32,0 -0.47,0 -0.3,0 -0.59,0 -0.89,0l1.39 1.45z"/>
   <path class="fil0" d="M3.51 3.44c0.17,0.13 0.28,0.33 0.48,0.43l0.46 -0.43c-0.08,-0.17 -0.33,-0.38 -0.47,-0.5 -0.12,0.1 -0.4,0.35 -0.48,0.51z"/>
   <path class="fil0" d="M4.08 3.97c0.13,0.21 0.3,0.31 0.43,0.48 0.16,-0.05 0.17,-0.1 0.28,-0.21 0.13,-0.13 0.16,-0.12 0.22,-0.26l-0.44 -0.46c-0.13,0.06 -0.4,0.35 -0.48,0.46z"/>
   <path class="fil0" d="M3.53 4.51c0.09,0.13 0.35,0.41 0.52,0.48l0.42 -0.43c-0.07,-0.15 -0.35,-0.41 -0.47,-0.5l-0.46 0.45z"/>
   <polygon class="fil0" points="2.95,3.95 3.44,4.43 3.9,3.97 3.42,3.48 "/>
   <polygon class="fil0" points="2.11,3.84 1.19,3.85 1.18,4.06 2.11,4.06 "/>
   <polygon class="fil0" points="4.06,5.8 3.87,5.79 3.88,6.75 4.06,6.75 "/>
   <path class="fil0" d="M4.06 5.8l0.01 0.95 -0.18 0 -0 -0.97c-0.08,-0.02 -0.07,-0.04 -0.05,0.04l-0 0.97 0.01 0.43 0.05 0.01 -0 -0.46 0.18 0 0 0.45 0.05 -0.01 0.01 -0.43c-0.02,-0.13 -0.08,-0.86 0.03,-0.96 -0.1,-0.17 -0.05,-0.5 -0.05,-0.73 -0.01,0.01 -0.01,0.01 -0.02,0.03 -0,0.02 -0.01,0.02 -0.01,0.03 -0.03,0.13 -0,-0.04 -0.01,0.07 -0,0.04 0,0.15 0,0.2 0,0.12 0,0.24 -0,0.36z"/>
   <path class="fil0" d="M0.71 4.03c-0.09,-0.03 -0.07,-0.05 -0.05,0.04l0.02 0.4c0.09,0.19 0.05,0.04 0.05,0.04l-0.02 -0.42c0.13,0 0.33,-0.03 0.44,0.04 0.19,-0.08 0.72,-0.04 0.97,-0.03 0.2,-0.05 0.49,-0.04 0.7,-0.01 -0.07,-0.06 0.02,-0.06 -0.31,-0.06 -0.12,0 -0.24,0 -0.36,0l-0 -0.16c0.19,0 0.53,0.06 0.67,-0.05l-0.7 0.01 -0 0.22 -0.93 0.01 0.01 -0.21c0.01,-0.08 0.03,-0.06 -0.05,-0.06l-0 0.06 -0 0.21 -0.43 -0.03z"/>
   <path class="fil0" d="M7.49 3.85l0.48 0c-0.07,-0.14 -0.09,-0.13 -0.23,-0.26 -0.09,-0.09 -0.14,-0.15 -0.25,-0.21l-0.01 0.47z"/>
   <path class="fil0" d="M0.48 3.85l-0.01 -0.45c-0.12,0.05 -0.17,0.12 -0.24,0.2 -0.13,0.13 -0.15,0.12 -0.22,0.26l0.48 -0.01z"/>
   <path class="fil0" d="M5.14 4.08c0.12,-0 0.24,-0 0.37,-0 0.05,-0 0.15,-0.01 0.2,-0 0.2,0.01 0.06,-0.01 0.17,0.05 0.05,-0.06 0.35,-0.02 0.45,-0.02 0.09,0 0.18,-0 0.27,-0 0.17,-0 0.13,-0.02 0.24,0.03 0.03,-0.03 -0.01,-0.02 0.07,-0.03 0.03,-0 0.08,-0 0.11,-0 0.08,-0 0.16,0 0.24,0l0 -0.05 -0.46 0.01 0 -0.21 -0.05 0.01 0.01 0.21 -0.86 0 -0.07 0c-0,-0.21 0.04,-0.15 -0.09,-0.22l-0.57 0c0.05,0.04 -0.05,0.02 0.11,0.04l0.52 -0 -0 0.16c-0.16,0 -0.52,-0.04 -0.65,0.04z"/>
   <path class="fil0" d="M3.85 1.13l0 -0.44 -0.47 0c0.07,0.14 0.32,0.37 0.46,0.44z"/>
   <path class="fil0" d="M0.69 3.85l0.46 0.01 0 -0.06c-0.19,-0.1 -0.28,-0.32 -0.45,-0.4l-0.01 0.45z"/>
   <path class="fil0" d="M7.5 4.54c0.14,-0.12 0.38,-0.3 0.46,-0.46l-0.47 0 0 0.46z"/>
   <path class="fil0" d="M3.87 7.48l-0.48 0.01c0.06,0.05 0.17,0.15 0.22,0.22 0.1,0.1 0.09,0.16 0.25,0.23l0.01 -0.45z"/>
   <path class="fil0" d="M3.87 0.46l-0.01 -0.45c-0.15,0.07 -0.14,0.11 -0.23,0.21 -0.06,0.06 -0.18,0.18 -0.24,0.23l0.48 0.01z"/>
   <polygon class="fil0" points="4.07,0.46 4.56,0.46 4.09,0 "/>
   <path class="fil0" d="M0.46 4.53l0 -0.44 -0.46 -0.02c0.05,0.1 0.02,0.06 0.11,0.15l0.35 0.31z"/>
   <polygon class="fil0" points="4.07,7.48 4.08,7.93 4.56,7.49 "/>
   <polygon class="fil0" points="6.8,3.84 7.26,3.86 7.26,3.39 "/>
   <path class="fil0" d="M4.11 7.24l0.45 -0.01c-0.07,-0.08 -0.14,-0.13 -0.21,-0.21 -0.1,-0.12 -0.13,-0.15 -0.24,-0.22l-0.01 0.43z"/>
   <path class="fil0" d="M7.26 4.1c-0.08,0 -0.16,-0 -0.24,-0 -0.03,0 -0.08,0 -0.11,0 -0.08,0.01 -0.04,-0.01 -0.07,0.03 0.33,0.25 0.19,0.29 0.43,0.41l-0.01 -0.44z"/>
   <path class="fil0" d="M3.83 7.24l-0.01 -0.43c-0.08,0.06 -0.15,0.12 -0.23,0.19 -0.09,0.09 -0.11,0.15 -0.21,0.22l0.45 0.02z"/>
   <path class="fil0" d="M0.72 4.51l0.42 -0.38c-0.11,-0.07 -0.31,-0.04 -0.44,-0.04l0.02 0.42z"/>
   <path class="fil0" d="M0.71 4.03l0.43 0.03 0 -0.21 -0.46 -0.01c0.04,0.06 0.04,0.07 0.07,0.12l-0.05 0.06z"/>
   <path class="fil0" d="M3.88 7.25c0,-0 0.08,-0.04 0.1,-0.05 0.03,0.05 0.05,0.03 0.07,0.05l-0 -0.45 -0.18 0 0 0.46z"/>
   <path class="fil0" d="M7.26 4.05c0.08,0.04 -0.01,-0 0.08,0.04 0.04,0.02 0.02,0.01 0.09,0.05l0.13 -0.15c-0.02,-0.04 -0.04,-0.08 -0.06,-0.13 -0.06,-0.03 -0.05,-0.01 -0.11,-0.07l-0.16 0.14c0.02,0.04 0.03,0.09 0.04,0.12z"/>
   <path class="fil0" d="M3.87 0.46l-0.06 0.12 0.14 0.15c0.02,-0.01 0.11,-0.03 0.12,-0.03 0.03,-0.08 -0.01,-0.03 0.07,-0.12 -0.03,-0.05 -0.04,-0.07 -0.07,-0.12 -0.05,-0.02 -0.05,-0.01 -0.09,-0.06 -0.09,0.08 -0.05,0.04 -0.11,0.06z"/>
   <path class="fil0" d="M3.88 7.25c-0.03,0.07 -0,0.04 -0.08,0.1 0.01,0.01 0.02,0.03 0.03,0.04 0.03,0.06 0.01,0.01 0.03,0.08 0.06,0.02 0.03,-0.02 0.11,0.06 0.05,-0.05 0.05,-0.04 0.09,-0.06 0.02,-0.04 0.04,-0.08 0.07,-0.12l-0.08 -0.11c-0.02,-0.01 -0.04,0 -0.07,-0.05 -0.02,0.02 -0.1,0.05 -0.1,0.05z"/>
   <path class="fil0" d="M0.48 3.85c-0.04,0.09 -0,0 -0.03,0.08 -0.01,0.01 -0.01,0.04 -0.02,0.05l0.12 0.16 0.1 -0.06c-0.02,-0.09 -0.03,-0.08 0.05,-0.04l0.05 -0.06c-0.03,-0.06 -0.03,-0.06 -0.07,-0.12l-0.09 -0.05c-0.07,0.06 -0.04,0.03 -0.11,0.06z"/>
  </g>
 </g>
</svg>
