<?xml version="1.0" encoding="UTF-8"?>
<!DOCTYPE svg PUBLIC "-//W3C//DTD SVG 1.1//EN" "http://www.w3.org/Graphics/SVG/1.1/DTD/svg11.dtd">
<!-- Creator: CorelDRAW 2018 (64-Bit) -->
<svg xmlns="http://www.w3.org/2000/svg" xml:space="preserve" width="4.3912mm" height="2.8787mm" version="1.1" style="shape-rendering:geometricPrecision; text-rendering:geometricPrecision; image-rendering:optimizeQuality; fill-rule:evenodd; clip-rule:evenodd"
viewBox="0 0 13.58 8.9"
 xmlns:xlink="http://www.w3.org/1999/xlink">
 <defs>
  <style type="text/css">
   <![CDATA[
    .fil0 {fill:#9EB0C5;fill-rule:nonzero}
   ]]>
  </style>
 </defs>
 <g id="Слой_x0020_1">
  <metadata id="CorelCorpID_0Corel-Layer"/>
  <g id="_1500324256">
   <path class="fil0" d="M13.38 6.38c-0.59,0 -0.88,0.12 -1.17,0.23 -0.26,0.1 -0.51,0.2 -1.03,0.2 -0.51,0 -0.76,-0.1 -1.03,-0.2 -0.29,-0.11 -0.58,-0.23 -1.17,-0.23 -0.59,0 -0.88,0.12 -1.17,0.23 -0.26,0.1 -0.51,0.2 -1.03,0.2 -0.51,0 -0.76,-0.1 -1.03,-0.2 -0.29,-0.11 -0.58,-0.23 -1.17,-0.23 -0.59,0 -0.88,0.12 -1.17,0.23 -0.26,0.1 -0.51,0.2 -1.03,0.2 -0.51,0 -0.76,-0.1 -1.03,-0.2 -0.29,-0.11 -0.58,-0.23 -1.17,-0.23 -0.11,0 -0.2,0.09 -0.2,0.2 0,0.11 0.09,0.2 0.2,0.2 0.51,0 0.76,0.1 1.03,0.2 0.29,0.11 0.58,0.23 1.17,0.23 0.59,0 0.88,-0.12 1.17,-0.23 0.26,-0.1 0.51,-0.2 1.03,-0.2 0.51,0 0.76,0.1 1.03,0.2 0.29,0.11 0.58,0.23 1.17,0.23 0.59,0 0.88,-0.12 1.17,-0.23 0.26,-0.1 0.51,-0.2 1.03,-0.2 0.51,0 0.76,0.1 1.03,0.2 0.29,0.11 0.58,0.23 1.17,0.23 0.59,0 0.88,-0.12 1.17,-0.23 0.26,-0.1 0.51,-0.2 1.03,-0.2 0.11,0 0.2,-0.09 0.2,-0.2 0,-0.11 -0.09,-0.2 -0.2,-0.2z"/>
   <path class="fil0" d="M12.24 7.44l-0.04 0.01c-0.12,0.05 -0.23,0.09 -0.37,0.13 -0.11,0.03 -0.17,0.14 -0.14,0.24 0.02,0.09 0.1,0.15 0.19,0.15 0.02,0 0.03,-0 0.05,-0.01 0.16,-0.04 0.29,-0.09 0.41,-0.14l0.04 -0.01c0.1,-0.04 0.15,-0.15 0.11,-0.26 -0.04,-0.1 -0.15,-0.15 -0.26,-0.11z"/>
   <path class="fil0" d="M11.05 7.65c-0.42,-0.02 -0.65,-0.1 -0.89,-0.2 -0.29,-0.11 -0.58,-0.23 -1.17,-0.23 -0.59,0 -0.88,0.12 -1.17,0.23 -0.26,0.1 -0.51,0.2 -1.03,0.2 -0.51,0 -0.76,-0.1 -1.03,-0.2 -0.29,-0.11 -0.58,-0.23 -1.17,-0.23 -0.59,0 -0.88,0.12 -1.17,0.23 -0.24,0.09 -0.47,0.18 -0.89,0.2 -0.11,0 -0.2,0.1 -0.19,0.21 0,0.11 0.1,0.2 0.21,0.19 0.49,-0.02 0.76,-0.12 1.02,-0.22 0.26,-0.1 0.51,-0.2 1.03,-0.2 0.51,0 0.76,0.1 1.03,0.2 0.29,0.11 0.58,0.23 1.17,0.23 0.59,0 0.88,-0.12 1.17,-0.23 0.26,-0.1 0.51,-0.2 1.03,-0.2 0.51,0 0.76,0.1 1.03,0.2 0.26,0.1 0.53,0.21 1.02,0.22 0.11,0 0.2,-0.08 0.21,-0.19 0,-0.11 -0.08,-0.2 -0.19,-0.21z"/>
   <path class="fil0" d="M8.98 8.08c-0.59,0 -0.88,0.12 -1.17,0.23 -0.26,0.1 -0.51,0.2 -1.03,0.2 -0.51,0 -0.76,-0.1 -1.03,-0.2 -0.29,-0.11 -0.58,-0.23 -1.17,-0.23 -0.11,0 -0.2,0.09 -0.2,0.2 0,0.11 0.09,0.2 0.2,0.2 0.51,0 0.76,0.1 1.03,0.2 0.29,0.11 0.58,0.23 1.17,0.23 0.59,0 0.88,-0.12 1.17,-0.23 0.26,-0.1 0.51,-0.2 1.03,-0.2 0.11,0 0.2,-0.09 0.2,-0.2 0,-0.11 -0.09,-0.2 -0.2,-0.2z"/>
   <path class="fil0" d="M1.74 7.58c-0.14,-0.03 -0.25,-0.08 -0.37,-0.13 -0.1,-0.04 -0.22,0.01 -0.26,0.11 -0.04,0.1 0.01,0.22 0.11,0.26 0.13,0.05 0.26,0.1 0.41,0.14 0.02,0 0.03,0.01 0.05,0.01 0.09,0 0.17,-0.06 0.19,-0.15 0.03,-0.11 -0.04,-0.21 -0.14,-0.24z"/>
   <path class="fil0" d="M3.62 5.74c0.01,0.1 0.09,0.18 0.2,0.18 0,0 0.01,-0 0.01,-0 0.11,-0.01 0.19,-0.1 0.18,-0.21 -0,-0.07 -0.01,-0.13 -0.01,-0.2 0,-1.53 1.25,-2.78 2.78,-2.78 0.91,0 1.76,0.45 2.28,1.19 0.06,0.09 0.19,0.11 0.28,0.05 0.09,-0.06 0.11,-0.19 0.05,-0.28 -0.59,-0.85 -1.57,-1.36 -2.61,-1.36 -1.75,0 -3.17,1.42 -3.17,3.17 0,0.08 0,0.15 0.01,0.23z"/>
   <path class="fil0" d="M1.47 5.31c-0.11,0 -0.2,0.09 -0.2,0.2 0,0.11 0.09,0.2 0.2,0.2l1.28 0c0.11,0 0.2,-0.09 0.2,-0.2 0,-0.11 -0.09,-0.2 -0.2,-0.2l-1.28 0z"/>
   <path class="fil0" d="M6.79 1.67c0.11,0 0.2,-0.09 0.2,-0.2l0 -1.28c0,-0.11 -0.09,-0.2 -0.2,-0.2 -0.11,0 -0.2,0.09 -0.2,0.2l0 1.28c0,0.11 0.09,0.2 0.2,0.2z"/>
   <path class="fil0" d="M9.64 2.86c0.05,0 0.1,-0.02 0.14,-0.06l0.9 -0.9c0.08,-0.08 0.08,-0.2 0,-0.28 -0.08,-0.08 -0.2,-0.08 -0.28,0l-0.9 0.9c-0.08,0.08 -0.08,0.2 0,0.28 0.04,0.04 0.09,0.06 0.14,0.06z"/>
   <path class="fil0" d="M5.06 1.86c0.03,0.08 0.11,0.12 0.18,0.12 0.03,0 0.05,-0 0.08,-0.02 0.1,-0.04 0.15,-0.16 0.11,-0.26l-0.16 -0.39c-0.04,-0.1 -0.16,-0.15 -0.26,-0.11 -0.1,0.04 -0.15,0.16 -0.11,0.26l0.16 0.39z"/>
   <path class="fil0" d="M10.34 4.04c0.03,0.08 0.11,0.12 0.18,0.12 0.03,0 0.05,-0 0.08,-0.02l0.39 -0.16c0.1,-0.04 0.15,-0.16 0.11,-0.26 -0.04,-0.1 -0.16,-0.15 -0.26,-0.11l-0.39 0.16c-0.1,0.04 -0.15,0.16 -0.11,0.26z"/>
   <path class="fil0" d="M8.26 1.97c0.03,0.01 0.05,0.02 0.08,0.02 0.08,0 0.15,-0.05 0.18,-0.12l0.16 -0.39c0.04,-0.1 -0.01,-0.22 -0.11,-0.26 -0.1,-0.04 -0.22,0.01 -0.26,0.11l-0.16 0.39c-0.04,0.1 0.01,0.22 0.11,0.26z"/>
   <path class="fil0" d="M3.06 4.17c0.08,0 0.15,-0.05 0.18,-0.12 0.04,-0.1 -0.01,-0.22 -0.11,-0.26l-0.39 -0.16c-0.1,-0.04 -0.22,0.01 -0.26,0.11 -0.04,0.1 0.01,0.22 0.11,0.26l0.39 0.16c0.03,0.01 0.05,0.02 0.08,0.02z"/>
   <path class="fil0" d="M1.96 1.9c0.1,0 0.19,0.02 0.29,0.06 0.07,0.03 0.16,0.02 0.22,-0.04 0.18,-0.16 0.4,-0.25 0.64,-0.25 0.45,0 0.83,0.32 0.92,0.74l-2.74 0c0.09,-0.3 0.36,-0.51 0.68,-0.51zm-0.91 0.91l3.19 0c0.11,0 0.2,-0.09 0.2,-0.2 0,-0.74 -0.6,-1.34 -1.34,-1.34 -0.29,0 -0.58,0.1 -0.81,0.28 -0.11,-0.03 -0.22,-0.05 -0.33,-0.05 -0.61,0 -1.11,0.5 -1.11,1.11 0,0.11 0.09,0.2 0.2,0.2z"/>
   <path class="fil0" d="M8.07 5.53c0.09,-0.42 0.47,-0.74 0.92,-0.74 0.23,0 0.46,0.09 0.64,0.25 0.06,0.05 0.14,0.07 0.22,0.04 0.09,-0.04 0.19,-0.06 0.29,-0.06 0.32,0 0.6,0.22 0.68,0.51l-2.74 0 0 0zm2.06 -0.91c-0.11,0 -0.22,0.02 -0.33,0.05 -0.23,-0.18 -0.52,-0.28 -0.81,-0.28 -0.74,0 -1.34,0.6 -1.34,1.34 0,0.11 0.09,0.2 0.2,0.2l3.19 0c0.11,0 0.2,-0.09 0.2,-0.2 0,-0.61 -0.5,-1.11 -1.11,-1.11z"/>
  </g>
 </g>
</svg>
